<svg xmlns="http://www.w3.org/2000/svg" xmlns:xlink="http://www.w3.org/1999/xlink" width="600" height="400" viewBox="0 0 2400 1600">
<defs>
  <clipPath id="clip140">
    <rect x="0" y="0" width="2400" height="1600"></rect>
  </clipPath>
</defs>
<path clip-path="url(#clip140)" d="M0 1600 L2400 1600 L2400 0 L0 0  Z" fill="#ffffff" fill-rule="evenodd" fill-opacity="1"></path>
<defs>
  <clipPath id="clip141">
    <rect x="480" y="0" width="1681" height="1600"></rect>
  </clipPath>
</defs>
<path clip-path="url(#clip140)" d="M210.746 1423.18 L2352.76 1423.18 L2352.76 47.2441 L210.746 47.2441  Z" fill="#ffffff" fill-rule="evenodd" fill-opacity="1"></path>
<defs>
  <clipPath id="clip142">
    <rect x="210" y="47" width="2143" height="1377"></rect>
  </clipPath>
</defs>
<polyline clip-path="url(#clip142)" style="stroke:#000000; stroke-linecap:round; stroke-linejoin:round; stroke-width:2; stroke-opacity:0.1; fill:none" points="330.582,1423.18 330.582,47.2441 "></polyline>
<polyline clip-path="url(#clip142)" style="stroke:#000000; stroke-linecap:round; stroke-linejoin:round; stroke-width:2; stroke-opacity:0.1; fill:none" points="787.992,1423.18 787.992,47.2441 "></polyline>
<polyline clip-path="url(#clip142)" style="stroke:#000000; stroke-linecap:round; stroke-linejoin:round; stroke-width:2; stroke-opacity:0.1; fill:none" points="1245.4,1423.18 1245.4,47.2441 "></polyline>
<polyline clip-path="url(#clip142)" style="stroke:#000000; stroke-linecap:round; stroke-linejoin:round; stroke-width:2; stroke-opacity:0.1; fill:none" points="1702.81,1423.18 1702.81,47.2441 "></polyline>
<polyline clip-path="url(#clip142)" style="stroke:#000000; stroke-linecap:round; stroke-linejoin:round; stroke-width:2; stroke-opacity:0.1; fill:none" points="2160.22,1423.18 2160.22,47.2441 "></polyline>
<polyline clip-path="url(#clip140)" style="stroke:#000000; stroke-linecap:round; stroke-linejoin:round; stroke-width:4; stroke-opacity:1; fill:none" points="210.746,1423.18 2352.76,1423.18 "></polyline>
<polyline clip-path="url(#clip140)" style="stroke:#000000; stroke-linecap:round; stroke-linejoin:round; stroke-width:4; stroke-opacity:1; fill:none" points="330.582,1423.18 330.582,1404.28 "></polyline>
<polyline clip-path="url(#clip140)" style="stroke:#000000; stroke-linecap:round; stroke-linejoin:round; stroke-width:4; stroke-opacity:1; fill:none" points="787.992,1423.18 787.992,1404.28 "></polyline>
<polyline clip-path="url(#clip140)" style="stroke:#000000; stroke-linecap:round; stroke-linejoin:round; stroke-width:4; stroke-opacity:1; fill:none" points="1245.4,1423.18 1245.4,1404.28 "></polyline>
<polyline clip-path="url(#clip140)" style="stroke:#000000; stroke-linecap:round; stroke-linejoin:round; stroke-width:4; stroke-opacity:1; fill:none" points="1702.81,1423.18 1702.81,1404.28 "></polyline>
<polyline clip-path="url(#clip140)" style="stroke:#000000; stroke-linecap:round; stroke-linejoin:round; stroke-width:4; stroke-opacity:1; fill:none" points="2160.22,1423.18 2160.22,1404.28 "></polyline>
<path clip-path="url(#clip140)" d="M262.029 1468.75 L291.704 1468.75 L291.704 1472.69 L262.029 1472.69 L262.029 1468.75 Z" fill="#000000" fill-rule="nonzero" fill-opacity="1"></path><path clip-path="url(#clip140)" d="M302.607 1481.64 L310.246 1481.64 L310.246 1455.28 L301.936 1456.95 L301.936 1452.69 L310.2 1451.02 L314.876 1451.02 L314.876 1481.64 L322.515 1481.64 L322.515 1485.58 L302.607 1485.58 L302.607 1481.64 Z" fill="#000000" fill-rule="nonzero" fill-opacity="1"></path><path clip-path="url(#clip140)" d="M341.959 1454.1 Q338.348 1454.1 336.519 1457.66 Q334.714 1461.2 334.714 1468.33 Q334.714 1475.44 336.519 1479.01 Q338.348 1482.55 341.959 1482.55 Q345.593 1482.55 347.399 1479.01 Q349.227 1475.44 349.227 1468.33 Q349.227 1461.2 347.399 1457.66 Q345.593 1454.1 341.959 1454.1 M341.959 1450.39 Q347.769 1450.39 350.825 1455 Q353.903 1459.58 353.903 1468.33 Q353.903 1477.06 350.825 1481.67 Q347.769 1486.25 341.959 1486.25 Q336.149 1486.25 333.07 1481.67 Q330.014 1477.06 330.014 1468.33 Q330.014 1459.58 333.07 1455 Q336.149 1450.39 341.959 1450.39 Z" fill="#000000" fill-rule="nonzero" fill-opacity="1"></path><path clip-path="url(#clip140)" d="M362.121 1479.7 L367.005 1479.7 L367.005 1485.58 L362.121 1485.58 L362.121 1479.7 Z" fill="#000000" fill-rule="nonzero" fill-opacity="1"></path><path clip-path="url(#clip140)" d="M387.19 1454.1 Q383.579 1454.1 381.75 1457.66 Q379.945 1461.2 379.945 1468.33 Q379.945 1475.44 381.75 1479.01 Q383.579 1482.55 387.19 1482.55 Q390.824 1482.55 392.63 1479.01 Q394.459 1475.44 394.459 1468.33 Q394.459 1461.2 392.63 1457.66 Q390.824 1454.1 387.19 1454.1 M387.19 1450.39 Q393 1450.39 396.056 1455 Q399.134 1459.58 399.134 1468.33 Q399.134 1477.06 396.056 1481.67 Q393 1486.25 387.19 1486.25 Q381.38 1486.25 378.301 1481.67 Q375.246 1477.06 375.246 1468.33 Q375.246 1459.58 378.301 1455 Q381.38 1450.39 387.19 1450.39 Z" fill="#000000" fill-rule="nonzero" fill-opacity="1"></path><path clip-path="url(#clip140)" d="M735.018 1468.75 L764.694 1468.75 L764.694 1472.69 L735.018 1472.69 L735.018 1468.75 Z" fill="#000000" fill-rule="nonzero" fill-opacity="1"></path><path clip-path="url(#clip140)" d="M773.606 1451.02 L795.828 1451.02 L795.828 1453.01 L783.282 1485.58 L778.398 1485.58 L790.203 1454.96 L773.606 1454.96 L773.606 1451.02 Z" fill="#000000" fill-rule="nonzero" fill-opacity="1"></path><path clip-path="url(#clip140)" d="M804.948 1479.7 L809.833 1479.7 L809.833 1485.58 L804.948 1485.58 L804.948 1479.7 Z" fill="#000000" fill-rule="nonzero" fill-opacity="1"></path><path clip-path="url(#clip140)" d="M820.064 1451.02 L838.42 1451.02 L838.42 1454.96 L824.346 1454.96 L824.346 1463.43 Q825.365 1463.08 826.383 1462.92 Q827.402 1462.73 828.42 1462.73 Q834.207 1462.73 837.587 1465.9 Q840.967 1469.08 840.967 1474.49 Q840.967 1480.07 837.494 1483.17 Q834.022 1486.25 827.703 1486.25 Q825.527 1486.25 823.258 1485.88 Q821.013 1485.51 818.606 1484.77 L818.606 1480.07 Q820.689 1481.2 822.911 1481.76 Q825.133 1482.32 827.61 1482.32 Q831.615 1482.32 833.953 1480.21 Q836.291 1478.1 836.291 1474.49 Q836.291 1470.88 833.953 1468.77 Q831.615 1466.67 827.61 1466.67 Q825.735 1466.67 823.86 1467.08 Q822.008 1467.5 820.064 1468.38 L820.064 1451.02 Z" fill="#000000" fill-rule="nonzero" fill-opacity="1"></path><path clip-path="url(#clip140)" d="M1191.93 1468.75 L1221.61 1468.75 L1221.61 1472.69 L1191.93 1472.69 L1191.93 1468.75 Z" fill="#000000" fill-rule="nonzero" fill-opacity="1"></path><path clip-path="url(#clip140)" d="M1231.75 1451.02 L1250.1 1451.02 L1250.1 1454.96 L1236.03 1454.96 L1236.03 1463.43 Q1237.05 1463.08 1238.07 1462.92 Q1239.08 1462.73 1240.1 1462.73 Q1245.89 1462.73 1249.27 1465.9 Q1252.65 1469.08 1252.65 1474.49 Q1252.65 1480.07 1249.18 1483.17 Q1245.7 1486.25 1239.38 1486.25 Q1237.21 1486.25 1234.94 1485.88 Q1232.69 1485.51 1230.29 1484.77 L1230.29 1480.07 Q1232.37 1481.2 1234.59 1481.76 Q1236.82 1482.32 1239.29 1482.32 Q1243.3 1482.32 1245.63 1480.21 Q1247.97 1478.1 1247.97 1474.49 Q1247.97 1470.88 1245.63 1468.77 Q1243.3 1466.67 1239.29 1466.67 Q1237.42 1466.67 1235.54 1467.08 Q1233.69 1467.5 1231.75 1468.38 L1231.75 1451.02 Z" fill="#000000" fill-rule="nonzero" fill-opacity="1"></path><path clip-path="url(#clip140)" d="M1261.86 1479.7 L1266.75 1479.7 L1266.75 1485.58 L1261.86 1485.58 L1261.86 1479.7 Z" fill="#000000" fill-rule="nonzero" fill-opacity="1"></path><path clip-path="url(#clip140)" d="M1286.93 1454.1 Q1283.32 1454.1 1281.49 1457.66 Q1279.69 1461.2 1279.69 1468.33 Q1279.69 1475.44 1281.49 1479.01 Q1283.32 1482.55 1286.93 1482.55 Q1290.57 1482.55 1292.37 1479.01 Q1294.2 1475.44 1294.2 1468.33 Q1294.2 1461.2 1292.37 1457.66 Q1290.57 1454.1 1286.93 1454.1 M1286.93 1450.39 Q1292.74 1450.39 1295.8 1455 Q1298.88 1459.58 1298.88 1468.33 Q1298.88 1477.06 1295.8 1481.67 Q1292.74 1486.25 1286.93 1486.25 Q1281.12 1486.25 1278.04 1481.67 Q1274.99 1477.06 1274.99 1468.33 Q1274.99 1459.58 1278.04 1455 Q1281.12 1450.39 1286.93 1450.39 Z" fill="#000000" fill-rule="nonzero" fill-opacity="1"></path><path clip-path="url(#clip140)" d="M1649.84 1468.75 L1679.52 1468.75 L1679.52 1472.69 L1649.84 1472.69 L1649.84 1468.75 Z" fill="#000000" fill-rule="nonzero" fill-opacity="1"></path><path clip-path="url(#clip140)" d="M1693.64 1481.64 L1709.96 1481.64 L1709.96 1485.58 L1688.01 1485.58 L1688.01 1481.64 Q1690.67 1478.89 1695.26 1474.26 Q1699.86 1469.61 1701.04 1468.27 Q1703.29 1465.74 1704.17 1464.01 Q1705.07 1462.25 1705.07 1460.56 Q1705.07 1457.8 1703.13 1456.07 Q1701.21 1454.33 1698.1 1454.33 Q1695.9 1454.33 1693.45 1455.09 Q1691.02 1455.86 1688.24 1457.41 L1688.24 1452.69 Q1691.07 1451.55 1693.52 1450.97 Q1695.97 1450.39 1698.01 1450.39 Q1703.38 1450.39 1706.58 1453.08 Q1709.77 1455.77 1709.77 1460.26 Q1709.77 1462.39 1708.96 1464.31 Q1708.17 1466.2 1706.07 1468.8 Q1705.49 1469.47 1702.39 1472.69 Q1699.28 1475.88 1693.64 1481.64 Z" fill="#000000" fill-rule="nonzero" fill-opacity="1"></path><path clip-path="url(#clip140)" d="M1719.77 1479.7 L1724.65 1479.7 L1724.65 1485.58 L1719.77 1485.58 L1719.77 1479.7 Z" fill="#000000" fill-rule="nonzero" fill-opacity="1"></path><path clip-path="url(#clip140)" d="M1734.89 1451.02 L1753.24 1451.02 L1753.24 1454.96 L1739.17 1454.96 L1739.17 1463.43 Q1740.19 1463.08 1741.21 1462.92 Q1742.22 1462.73 1743.24 1462.73 Q1749.03 1462.73 1752.41 1465.9 Q1755.79 1469.08 1755.79 1474.49 Q1755.79 1480.07 1752.32 1483.17 Q1748.84 1486.25 1742.52 1486.25 Q1740.35 1486.25 1738.08 1485.88 Q1735.83 1485.51 1733.43 1484.77 L1733.43 1480.07 Q1735.51 1481.2 1737.73 1481.76 Q1739.96 1482.32 1742.43 1482.32 Q1746.44 1482.32 1748.77 1480.21 Q1751.11 1478.1 1751.11 1474.49 Q1751.11 1470.88 1748.77 1468.77 Q1746.44 1466.67 1742.43 1466.67 Q1740.56 1466.67 1738.68 1467.08 Q1736.83 1467.5 1734.89 1468.38 L1734.89 1451.02 Z" fill="#000000" fill-rule="nonzero" fill-opacity="1"></path><path clip-path="url(#clip140)" d="M2137.61 1454.1 Q2134 1454.1 2132.17 1457.66 Q2130.36 1461.2 2130.36 1468.33 Q2130.36 1475.44 2132.17 1479.01 Q2134 1482.55 2137.61 1482.55 Q2141.24 1482.55 2143.05 1479.01 Q2144.88 1475.44 2144.88 1468.33 Q2144.88 1461.2 2143.05 1457.66 Q2141.24 1454.1 2137.61 1454.1 M2137.61 1450.39 Q2143.42 1450.39 2146.47 1455 Q2149.55 1459.58 2149.55 1468.33 Q2149.55 1477.06 2146.47 1481.67 Q2143.42 1486.25 2137.61 1486.25 Q2131.8 1486.25 2128.72 1481.67 Q2125.66 1477.06 2125.66 1468.33 Q2125.66 1459.58 2128.72 1455 Q2131.8 1450.39 2137.61 1450.39 Z" fill="#000000" fill-rule="nonzero" fill-opacity="1"></path><path clip-path="url(#clip140)" d="M2157.77 1479.7 L2162.66 1479.7 L2162.66 1485.58 L2157.77 1485.58 L2157.77 1479.7 Z" fill="#000000" fill-rule="nonzero" fill-opacity="1"></path><path clip-path="url(#clip140)" d="M2182.84 1454.1 Q2179.23 1454.1 2177.4 1457.66 Q2175.6 1461.2 2175.6 1468.33 Q2175.6 1475.44 2177.4 1479.01 Q2179.23 1482.55 2182.84 1482.55 Q2186.47 1482.55 2188.28 1479.01 Q2190.11 1475.44 2190.11 1468.33 Q2190.11 1461.2 2188.28 1457.66 Q2186.47 1454.1 2182.84 1454.1 M2182.84 1450.39 Q2188.65 1450.39 2191.71 1455 Q2194.78 1459.58 2194.78 1468.33 Q2194.78 1477.06 2191.71 1481.67 Q2188.65 1486.25 2182.84 1486.25 Q2177.03 1486.25 2173.95 1481.67 Q2170.9 1477.06 2170.9 1468.33 Q2170.9 1459.58 2173.95 1455 Q2177.03 1450.39 2182.84 1450.39 Z" fill="#000000" fill-rule="nonzero" fill-opacity="1"></path><path clip-path="url(#clip140)" d="M924.826 1525.81 L924.826 1543.66 L932.91 1543.66 Q937.398 1543.66 939.849 1541.34 Q942.3 1539.02 942.3 1534.72 Q942.3 1530.45 939.849 1528.13 Q937.398 1525.81 932.91 1525.81 L924.826 1525.81 M918.396 1520.52 L932.91 1520.52 Q940.899 1520.52 944.973 1524.15 Q949.079 1527.75 949.079 1534.72 Q949.079 1541.75 944.973 1545.35 Q940.899 1548.95 932.91 1548.95 L924.826 1548.95 L924.826 1568.04 L918.396 1568.04 L918.396 1520.52 Z" fill="#000000" fill-rule="nonzero" fill-opacity="1"></path><path clip-path="url(#clip140)" d="M976.961 1537.87 Q975.974 1537.3 974.797 1537.04 Q973.651 1536.76 972.25 1536.76 Q967.285 1536.76 964.611 1540 Q961.97 1543.22 961.97 1549.27 L961.97 1568.04 L956.081 1568.04 L956.081 1532.4 L961.97 1532.4 L961.97 1537.93 Q963.816 1534.69 966.776 1533.13 Q969.736 1531.54 973.969 1531.54 Q974.574 1531.54 975.306 1531.63 Q976.038 1531.7 976.929 1531.85 L976.961 1537.87 Z" fill="#000000" fill-rule="nonzero" fill-opacity="1"></path><path clip-path="url(#clip140)" d="M983.104 1532.4 L988.96 1532.4 L988.96 1568.04 L983.104 1568.04 L983.104 1532.4 M983.104 1518.52 L988.96 1518.52 L988.96 1525.93 L983.104 1525.93 L983.104 1518.52 Z" fill="#000000" fill-rule="nonzero" fill-opacity="1"></path><path clip-path="url(#clip140)" d="M1030.85 1546.53 L1030.85 1568.04 L1024.99 1568.04 L1024.99 1546.72 Q1024.99 1541.66 1023.02 1539.14 Q1021.04 1536.63 1017.1 1536.63 Q1012.35 1536.63 1009.62 1539.65 Q1006.88 1542.68 1006.88 1547.9 L1006.88 1568.04 L1000.99 1568.04 L1000.99 1532.4 L1006.88 1532.4 L1006.88 1537.93 Q1008.98 1534.72 1011.81 1533.13 Q1014.68 1531.54 1018.4 1531.54 Q1024.54 1531.54 1027.7 1535.36 Q1030.85 1539.14 1030.85 1546.53 Z" fill="#000000" fill-rule="nonzero" fill-opacity="1"></path><path clip-path="url(#clip140)" d="M1068.18 1533.76 L1068.18 1539.24 Q1065.7 1537.87 1063.18 1537.2 Q1060.7 1536.5 1058.16 1536.5 Q1052.46 1536.5 1049.31 1540.13 Q1046.16 1543.73 1046.16 1550.25 Q1046.16 1556.78 1049.31 1560.4 Q1052.46 1564 1058.16 1564 Q1060.7 1564 1063.18 1563.33 Q1065.7 1562.63 1068.18 1561.26 L1068.18 1566.68 Q1065.73 1567.82 1063.09 1568.39 Q1060.48 1568.97 1057.52 1568.97 Q1049.47 1568.97 1044.72 1563.91 Q1039.98 1558.85 1039.98 1550.25 Q1039.98 1541.53 1044.76 1536.53 Q1049.56 1531.54 1057.9 1531.54 Q1060.61 1531.54 1063.18 1532.11 Q1065.76 1532.65 1068.18 1533.76 Z" fill="#000000" fill-rule="nonzero" fill-opacity="1"></path><path clip-path="url(#clip140)" d="M1078.37 1532.4 L1084.22 1532.4 L1084.22 1568.04 L1078.37 1568.04 L1078.37 1532.4 M1078.37 1518.52 L1084.22 1518.52 L1084.22 1525.93 L1078.37 1525.93 L1078.37 1518.52 Z" fill="#000000" fill-rule="nonzero" fill-opacity="1"></path><path clip-path="url(#clip140)" d="M1102.14 1562.7 L1102.14 1581.6 L1096.25 1581.6 L1096.25 1532.4 L1102.14 1532.4 L1102.14 1537.81 Q1103.99 1534.62 1106.79 1533.1 Q1109.62 1531.54 1113.54 1531.54 Q1120.03 1531.54 1124.07 1536.69 Q1128.15 1541.85 1128.15 1550.25 Q1128.15 1558.65 1124.07 1563.81 Q1120.03 1568.97 1113.54 1568.97 Q1109.62 1568.97 1106.79 1567.44 Q1103.99 1565.88 1102.14 1562.7 M1122.07 1550.25 Q1122.07 1543.79 1119.39 1540.13 Q1116.75 1536.44 1112.1 1536.44 Q1107.46 1536.44 1104.78 1540.13 Q1102.14 1543.79 1102.14 1550.25 Q1102.14 1556.71 1104.78 1560.4 Q1107.46 1564.07 1112.1 1564.07 Q1116.75 1564.07 1119.39 1560.4 Q1122.07 1556.71 1122.07 1550.25 Z" fill="#000000" fill-rule="nonzero" fill-opacity="1"></path><path clip-path="url(#clip140)" d="M1154.05 1550.12 Q1146.96 1550.12 1144.22 1551.75 Q1141.48 1553.37 1141.48 1557.29 Q1141.48 1560.4 1143.52 1562.25 Q1145.59 1564.07 1149.12 1564.07 Q1153.99 1564.07 1156.92 1560.63 Q1159.88 1557.16 1159.88 1551.43 L1159.88 1550.12 L1154.05 1550.12 M1165.74 1547.71 L1165.74 1568.04 L1159.88 1568.04 L1159.88 1562.63 Q1157.87 1565.88 1154.88 1567.44 Q1151.89 1568.97 1147.56 1568.97 Q1142.09 1568.97 1138.84 1565.91 Q1135.63 1562.82 1135.63 1557.67 Q1135.63 1551.65 1139.64 1548.6 Q1143.68 1545.54 1151.67 1545.54 L1159.88 1545.54 L1159.88 1544.97 Q1159.88 1540.93 1157.21 1538.73 Q1154.56 1536.5 1149.76 1536.5 Q1146.7 1536.5 1143.81 1537.23 Q1140.91 1537.97 1138.24 1539.43 L1138.24 1534.02 Q1141.45 1532.78 1144.47 1532.17 Q1147.5 1531.54 1150.36 1531.54 Q1158.1 1531.54 1161.92 1535.55 Q1165.74 1539.56 1165.74 1547.71 Z" fill="#000000" fill-rule="nonzero" fill-opacity="1"></path><path clip-path="url(#clip140)" d="M1177.8 1518.52 L1183.66 1518.52 L1183.66 1568.04 L1177.8 1568.04 L1177.8 1518.52 Z" fill="#000000" fill-rule="nonzero" fill-opacity="1"></path><path clip-path="url(#clip140)" d="M1252.47 1524.18 L1252.47 1530.96 Q1249.22 1527.94 1245.53 1526.44 Q1241.87 1524.95 1237.73 1524.95 Q1229.58 1524.95 1225.26 1529.95 Q1220.93 1534.91 1220.93 1544.33 Q1220.93 1553.72 1225.26 1558.72 Q1229.58 1563.68 1237.73 1563.68 Q1241.87 1563.68 1245.53 1562.19 Q1249.22 1560.69 1252.47 1557.67 L1252.47 1564.38 Q1249.09 1566.68 1245.31 1567.82 Q1241.55 1568.97 1237.35 1568.97 Q1226.56 1568.97 1220.35 1562.38 Q1214.15 1555.76 1214.15 1544.33 Q1214.15 1532.87 1220.35 1526.28 Q1226.56 1519.66 1237.35 1519.66 Q1241.62 1519.66 1245.37 1520.81 Q1249.16 1521.92 1252.47 1524.18 Z" fill="#000000" fill-rule="nonzero" fill-opacity="1"></path><path clip-path="url(#clip140)" d="M1275.96 1536.5 Q1271.25 1536.5 1268.51 1540.19 Q1265.77 1543.85 1265.77 1550.25 Q1265.77 1556.65 1268.48 1560.34 Q1271.22 1564 1275.96 1564 Q1280.64 1564 1283.37 1560.31 Q1286.11 1556.62 1286.11 1550.25 Q1286.11 1543.92 1283.37 1540.23 Q1280.64 1536.5 1275.96 1536.5 M1275.96 1531.54 Q1283.6 1531.54 1287.96 1536.5 Q1292.32 1541.47 1292.32 1550.25 Q1292.32 1559 1287.96 1564 Q1283.6 1568.97 1275.96 1568.97 Q1268.29 1568.97 1263.93 1564 Q1259.6 1559 1259.6 1550.25 Q1259.6 1541.47 1263.93 1536.5 Q1268.29 1531.54 1275.96 1531.54 Z" fill="#000000" fill-rule="nonzero" fill-opacity="1"></path><path clip-path="url(#clip140)" d="M1329.78 1539.24 Q1331.98 1535.29 1335.03 1533.41 Q1338.09 1531.54 1342.23 1531.54 Q1347.8 1531.54 1350.82 1535.45 Q1353.84 1539.33 1353.84 1546.53 L1353.84 1568.04 L1347.95 1568.04 L1347.95 1546.72 Q1347.95 1541.59 1346.14 1539.11 Q1344.33 1536.63 1340.6 1536.63 Q1336.05 1536.63 1333.41 1539.65 Q1330.77 1542.68 1330.77 1547.9 L1330.77 1568.04 L1324.88 1568.04 L1324.88 1546.72 Q1324.88 1541.56 1323.06 1539.11 Q1321.25 1536.63 1317.46 1536.63 Q1312.97 1536.63 1310.33 1539.68 Q1307.69 1542.71 1307.69 1547.9 L1307.69 1568.04 L1301.8 1568.04 L1301.8 1532.4 L1307.69 1532.4 L1307.69 1537.93 Q1309.7 1534.66 1312.5 1533.1 Q1315.3 1531.54 1319.15 1531.54 Q1323.03 1531.54 1325.74 1533.51 Q1328.48 1535.48 1329.78 1539.24 Z" fill="#000000" fill-rule="nonzero" fill-opacity="1"></path><path clip-path="url(#clip140)" d="M1371.19 1562.7 L1371.19 1581.6 L1365.3 1581.6 L1365.3 1532.4 L1371.19 1532.4 L1371.19 1537.81 Q1373.04 1534.62 1375.84 1533.1 Q1378.67 1531.54 1382.58 1531.54 Q1389.08 1531.54 1393.12 1536.69 Q1397.19 1541.85 1397.19 1550.25 Q1397.19 1558.65 1393.12 1563.81 Q1389.08 1568.97 1382.58 1568.97 Q1378.67 1568.97 1375.84 1567.44 Q1373.04 1565.88 1371.19 1562.7 M1391.11 1550.25 Q1391.11 1543.79 1388.44 1540.13 Q1385.8 1536.44 1381.15 1536.44 Q1376.5 1536.44 1373.83 1540.13 Q1371.19 1543.79 1371.19 1550.25 Q1371.19 1556.71 1373.83 1560.4 Q1376.5 1564.07 1381.15 1564.07 Q1385.8 1564.07 1388.44 1560.4 Q1391.11 1556.71 1391.11 1550.25 Z" fill="#000000" fill-rule="nonzero" fill-opacity="1"></path><path clip-path="url(#clip140)" d="M1420.71 1536.5 Q1416 1536.5 1413.27 1540.19 Q1410.53 1543.85 1410.53 1550.25 Q1410.53 1556.65 1413.23 1560.34 Q1415.97 1564 1420.71 1564 Q1425.39 1564 1428.13 1560.31 Q1430.87 1556.62 1430.87 1550.25 Q1430.87 1543.92 1428.13 1540.23 Q1425.39 1536.5 1420.71 1536.5 M1420.71 1531.54 Q1428.35 1531.54 1432.71 1536.5 Q1437.07 1541.47 1437.07 1550.25 Q1437.07 1559 1432.71 1564 Q1428.35 1568.97 1420.71 1568.97 Q1413.04 1568.97 1408.68 1564 Q1404.35 1559 1404.35 1550.25 Q1404.35 1541.47 1408.68 1536.5 Q1413.04 1531.54 1420.71 1531.54 Z" fill="#000000" fill-rule="nonzero" fill-opacity="1"></path><path clip-path="url(#clip140)" d="M1476.41 1546.53 L1476.41 1568.04 L1470.56 1568.04 L1470.56 1546.72 Q1470.56 1541.66 1468.58 1539.14 Q1466.61 1536.63 1462.66 1536.63 Q1457.92 1536.63 1455.18 1539.65 Q1452.45 1542.68 1452.45 1547.9 L1452.45 1568.04 L1446.56 1568.04 L1446.56 1532.4 L1452.45 1532.4 L1452.45 1537.93 Q1454.55 1534.72 1457.38 1533.13 Q1460.25 1531.54 1463.97 1531.54 Q1470.11 1531.54 1473.26 1535.36 Q1476.41 1539.14 1476.41 1546.53 Z" fill="#000000" fill-rule="nonzero" fill-opacity="1"></path><path clip-path="url(#clip140)" d="M1518.59 1548.76 L1518.59 1551.62 L1491.66 1551.62 Q1492.04 1557.67 1495.29 1560.85 Q1498.57 1564 1504.39 1564 Q1507.77 1564 1510.92 1563.17 Q1514.1 1562.35 1517.22 1560.69 L1517.22 1566.23 Q1514.07 1567.57 1510.76 1568.27 Q1507.45 1568.97 1504.04 1568.97 Q1495.51 1568.97 1490.51 1564 Q1485.55 1559.04 1485.55 1550.57 Q1485.55 1541.82 1490.26 1536.69 Q1495 1531.54 1503.02 1531.54 Q1510.22 1531.54 1514.39 1536.18 Q1518.59 1540.8 1518.59 1548.76 M1512.73 1547.04 Q1512.67 1542.23 1510.03 1539.37 Q1507.42 1536.5 1503.09 1536.5 Q1498.18 1536.5 1495.22 1539.27 Q1492.3 1542.04 1491.85 1547.07 L1512.73 1547.04 Z" fill="#000000" fill-rule="nonzero" fill-opacity="1"></path><path clip-path="url(#clip140)" d="M1557.83 1546.53 L1557.83 1568.04 L1551.98 1568.04 L1551.98 1546.72 Q1551.98 1541.66 1550 1539.14 Q1548.03 1536.63 1544.08 1536.63 Q1539.34 1536.63 1536.6 1539.65 Q1533.86 1542.68 1533.86 1547.9 L1533.86 1568.04 L1527.98 1568.04 L1527.98 1532.4 L1533.86 1532.4 L1533.86 1537.93 Q1535.97 1534.72 1538.8 1533.13 Q1541.66 1531.54 1545.39 1531.54 Q1551.53 1531.54 1554.68 1535.36 Q1557.83 1539.14 1557.83 1546.53 Z" fill="#000000" fill-rule="nonzero" fill-opacity="1"></path><path clip-path="url(#clip140)" d="M1575.31 1522.27 L1575.31 1532.4 L1587.37 1532.4 L1587.37 1536.95 L1575.31 1536.95 L1575.31 1556.3 Q1575.31 1560.66 1576.48 1561.9 Q1577.69 1563.14 1581.35 1563.14 L1587.37 1563.14 L1587.37 1568.04 L1581.35 1568.04 Q1574.57 1568.04 1572 1565.53 Q1569.42 1562.98 1569.42 1556.3 L1569.42 1536.95 L1565.12 1536.95 L1565.12 1532.4 L1569.42 1532.4 L1569.42 1522.27 L1575.31 1522.27 Z" fill="#000000" fill-rule="nonzero" fill-opacity="1"></path><path clip-path="url(#clip140)" d="M1617.73 1562.63 L1628.24 1562.63 L1628.24 1526.38 L1616.81 1528.67 L1616.81 1522.82 L1628.17 1520.52 L1634.6 1520.52 L1634.6 1562.63 L1645.11 1562.63 L1645.11 1568.04 L1617.73 1568.04 L1617.73 1562.63 Z" fill="#000000" fill-rule="nonzero" fill-opacity="1"></path><polyline clip-path="url(#clip142)" style="stroke:#000000; stroke-linecap:round; stroke-linejoin:round; stroke-width:2; stroke-opacity:0.1; fill:none" points="210.746,1195.57 2352.76,1195.57 "></polyline>
<polyline clip-path="url(#clip142)" style="stroke:#000000; stroke-linecap:round; stroke-linejoin:round; stroke-width:2; stroke-opacity:0.1; fill:none" points="210.746,887.034 2352.76,887.034 "></polyline>
<polyline clip-path="url(#clip142)" style="stroke:#000000; stroke-linecap:round; stroke-linejoin:round; stroke-width:2; stroke-opacity:0.1; fill:none" points="210.746,578.502 2352.76,578.502 "></polyline>
<polyline clip-path="url(#clip142)" style="stroke:#000000; stroke-linecap:round; stroke-linejoin:round; stroke-width:2; stroke-opacity:0.1; fill:none" points="210.746,269.97 2352.76,269.97 "></polyline>
<polyline clip-path="url(#clip140)" style="stroke:#000000; stroke-linecap:round; stroke-linejoin:round; stroke-width:4; stroke-opacity:1; fill:none" points="210.746,1423.18 210.746,47.2441 "></polyline>
<polyline clip-path="url(#clip140)" style="stroke:#000000; stroke-linecap:round; stroke-linejoin:round; stroke-width:4; stroke-opacity:1; fill:none" points="210.746,1195.57 229.644,1195.57 "></polyline>
<polyline clip-path="url(#clip140)" style="stroke:#000000; stroke-linecap:round; stroke-linejoin:round; stroke-width:4; stroke-opacity:1; fill:none" points="210.746,887.034 229.644,887.034 "></polyline>
<polyline clip-path="url(#clip140)" style="stroke:#000000; stroke-linecap:round; stroke-linejoin:round; stroke-width:4; stroke-opacity:1; fill:none" points="210.746,578.502 229.644,578.502 "></polyline>
<polyline clip-path="url(#clip140)" style="stroke:#000000; stroke-linecap:round; stroke-linejoin:round; stroke-width:4; stroke-opacity:1; fill:none" points="210.746,269.97 229.644,269.97 "></polyline>
<path clip-path="url(#clip140)" d="M114.26 1196.02 L143.936 1196.02 L143.936 1199.95 L114.26 1199.95 L114.26 1196.02 Z" fill="#000000" fill-rule="nonzero" fill-opacity="1"></path><path clip-path="url(#clip140)" d="M154.839 1208.91 L162.477 1208.91 L162.477 1182.55 L154.167 1184.21 L154.167 1179.95 L162.431 1178.29 L167.107 1178.29 L167.107 1208.91 L174.746 1208.91 L174.746 1212.85 L154.839 1212.85 L154.839 1208.91 Z" fill="#000000" fill-rule="nonzero" fill-opacity="1"></path><path clip-path="url(#clip140)" d="M162.802 872.833 Q159.19 872.833 157.362 876.398 Q155.556 879.939 155.556 887.069 Q155.556 894.175 157.362 897.74 Q159.19 901.282 162.802 901.282 Q166.436 901.282 168.241 897.74 Q170.07 894.175 170.07 887.069 Q170.07 879.939 168.241 876.398 Q166.436 872.833 162.802 872.833 M162.802 869.129 Q168.612 869.129 171.667 873.735 Q174.746 878.319 174.746 887.069 Q174.746 895.796 171.667 900.402 Q168.612 904.985 162.802 904.985 Q156.991 904.985 153.913 900.402 Q150.857 895.796 150.857 887.069 Q150.857 878.319 153.913 873.735 Q156.991 869.129 162.802 869.129 Z" fill="#000000" fill-rule="nonzero" fill-opacity="1"></path><path clip-path="url(#clip140)" d="M154.839 591.847 L162.477 591.847 L162.477 565.481 L154.167 567.148 L154.167 562.888 L162.431 561.222 L167.107 561.222 L167.107 591.847 L174.746 591.847 L174.746 595.782 L154.839 595.782 L154.839 591.847 Z" fill="#000000" fill-rule="nonzero" fill-opacity="1"></path><path clip-path="url(#clip140)" d="M158.427 283.314 L174.746 283.314 L174.746 287.25 L152.802 287.25 L152.802 283.314 Q155.464 280.56 160.047 275.93 Q164.653 271.277 165.834 269.935 Q168.079 267.412 168.959 265.676 Q169.862 263.916 169.862 262.227 Q169.862 259.472 167.917 257.736 Q165.996 256 162.894 256 Q160.695 256 158.241 256.764 Q155.811 257.528 153.033 259.078 L153.033 254.356 Q155.857 253.222 158.311 252.643 Q160.765 252.065 162.802 252.065 Q168.172 252.065 171.366 254.75 Q174.561 257.435 174.561 261.926 Q174.561 264.055 173.751 265.977 Q172.964 267.875 170.857 270.467 Q170.278 271.139 167.177 274.356 Q164.075 277.551 158.427 283.314 Z" fill="#000000" fill-rule="nonzero" fill-opacity="1"></path><path clip-path="url(#clip140)" d="M21.7677 1091.88 L39.6235 1091.88 L39.6235 1083.8 Q39.6235 1079.31 37.3 1076.86 Q34.9765 1074.41 30.6797 1074.41 Q26.4147 1074.41 24.0912 1076.86 Q21.7677 1079.31 21.7677 1083.8 L21.7677 1091.88 M16.4842 1098.31 L16.4842 1083.8 Q16.4842 1075.81 20.1126 1071.74 Q23.7092 1067.63 30.6797 1067.63 Q37.7138 1067.63 41.3104 1071.74 Q44.907 1075.81 44.907 1083.8 L44.907 1091.88 L64.0042 1091.88 L64.0042 1098.31 L16.4842 1098.31 Z" fill="#000000" fill-rule="nonzero" fill-opacity="1"></path><path clip-path="url(#clip140)" d="M33.8307 1039.75 Q33.2578 1040.73 33.0032 1041.91 Q32.7167 1043.06 32.7167 1044.46 Q32.7167 1049.42 35.9632 1052.1 Q39.1779 1054.74 45.2253 1054.74 L64.0042 1054.74 L64.0042 1060.63 L28.3562 1060.63 L28.3562 1054.74 L33.8944 1054.74 Q30.6479 1052.89 29.0883 1049.93 Q27.4968 1046.97 27.4968 1042.74 Q27.4968 1042.13 27.5923 1041.4 Q27.656 1040.67 27.8151 1039.78 L33.8307 1039.75 Z" fill="#000000" fill-rule="nonzero" fill-opacity="1"></path><path clip-path="url(#clip140)" d="M28.3562 1033.6 L28.3562 1027.75 L64.0042 1027.75 L64.0042 1033.6 L28.3562 1033.6 M14.479 1033.6 L14.479 1027.75 L21.895 1027.75 L21.895 1033.6 L14.479 1033.6 Z" fill="#000000" fill-rule="nonzero" fill-opacity="1"></path><path clip-path="url(#clip140)" d="M42.4881 985.862 L64.0042 985.862 L64.0042 991.718 L42.679 991.718 Q37.6183 991.718 35.1038 993.691 Q32.5894 995.665 32.5894 999.612 Q32.5894 1004.35 35.6131 1007.09 Q38.6368 1009.83 43.8567 1009.83 L64.0042 1009.83 L64.0042 1015.72 L28.3562 1015.72 L28.3562 1009.83 L33.8944 1009.83 Q30.6797 1007.73 29.0883 1004.9 Q27.4968 1002.03 27.4968 998.307 Q27.4968 992.164 31.3163 989.013 Q35.1038 985.862 42.4881 985.862 Z" fill="#000000" fill-rule="nonzero" fill-opacity="1"></path><path clip-path="url(#clip140)" d="M29.7248 948.527 L35.1993 948.527 Q33.8307 951.009 33.1623 953.524 Q32.4621 956.007 32.4621 958.553 Q32.4621 964.25 36.0905 967.401 Q39.6872 970.552 46.212 970.552 Q52.7369 970.552 56.3653 967.401 Q59.9619 964.25 59.9619 958.553 Q59.9619 956.007 59.2935 953.524 Q58.5933 951.009 57.2247 948.527 L62.6355 948.527 Q63.7814 950.978 64.3543 953.619 Q64.9272 956.229 64.9272 959.189 Q64.9272 967.242 59.8664 971.984 Q54.8057 976.727 46.212 976.727 Q37.491 976.727 32.4939 971.953 Q27.4968 967.146 27.4968 958.807 Q27.4968 956.102 28.0697 953.524 Q28.6108 950.946 29.7248 948.527 Z" fill="#000000" fill-rule="nonzero" fill-opacity="1"></path><path clip-path="url(#clip140)" d="M28.3562 938.342 L28.3562 932.485 L64.0042 932.485 L64.0042 938.342 L28.3562 938.342 M14.479 938.342 L14.479 932.485 L21.895 932.485 L21.895 938.342 L14.479 938.342 Z" fill="#000000" fill-rule="nonzero" fill-opacity="1"></path><path clip-path="url(#clip140)" d="M58.657 914.566 L77.5631 914.566 L77.5631 920.454 L28.3562 920.454 L28.3562 914.566 L33.7671 914.566 Q30.5842 912.72 29.0564 909.919 Q27.4968 907.086 27.4968 903.171 Q27.4968 896.678 32.6531 892.636 Q37.8093 888.562 46.212 888.562 Q54.6147 888.562 59.771 892.636 Q64.9272 896.678 64.9272 903.171 Q64.9272 907.086 63.3994 909.919 Q61.8398 912.72 58.657 914.566 M46.212 894.641 Q39.7508 894.641 36.0905 897.315 Q32.3984 899.956 32.3984 904.603 Q32.3984 909.25 36.0905 911.924 Q39.7508 914.566 46.212 914.566 Q52.6732 914.566 56.3653 911.924 Q60.0256 909.25 60.0256 904.603 Q60.0256 899.956 56.3653 897.315 Q52.6732 894.641 46.212 894.641 Z" fill="#000000" fill-rule="nonzero" fill-opacity="1"></path><path clip-path="url(#clip140)" d="M46.0847 862.653 Q46.0847 869.751 47.7079 872.488 Q49.3312 875.226 53.2461 875.226 Q56.3653 875.226 58.2114 873.189 Q60.0256 871.12 60.0256 867.587 Q60.0256 862.717 56.5881 859.789 Q53.1188 856.829 47.3897 856.829 L46.0847 856.829 L46.0847 862.653 M43.6657 850.972 L64.0042 850.972 L64.0042 856.829 L58.5933 856.829 Q61.8398 858.834 63.3994 861.826 Q64.9272 864.818 64.9272 869.146 Q64.9272 874.621 61.8716 877.867 Q58.7843 881.082 53.6281 881.082 Q47.6125 881.082 44.5569 877.072 Q41.5014 873.03 41.5014 865.041 L41.5014 856.829 L40.9285 856.829 Q36.8862 856.829 34.6901 859.502 Q32.4621 862.144 32.4621 866.95 Q32.4621 870.006 33.1941 872.902 Q33.9262 875.799 35.3903 878.472 L29.9795 878.472 Q28.7381 875.258 28.1334 872.234 Q27.4968 869.21 27.4968 866.346 Q27.4968 858.611 31.5072 854.792 Q35.5176 850.972 43.6657 850.972 Z" fill="#000000" fill-rule="nonzero" fill-opacity="1"></path><path clip-path="url(#clip140)" d="M14.479 838.909 L14.479 833.053 L64.0042 833.053 L64.0042 838.909 L14.479 838.909 Z" fill="#000000" fill-rule="nonzero" fill-opacity="1"></path><path clip-path="url(#clip140)" d="M20.1444 764.24 L26.9239 764.24 Q23.9002 767.486 22.4043 771.178 Q20.9083 774.838 20.9083 778.976 Q20.9083 787.124 25.9054 791.453 Q30.8707 795.782 40.2919 795.782 Q49.6813 795.782 54.6784 791.453 Q59.6436 787.124 59.6436 778.976 Q59.6436 774.838 58.1477 771.178 Q56.6518 767.486 53.6281 764.24 L60.3439 764.24 Q62.6355 767.613 63.7814 771.401 Q64.9272 775.157 64.9272 779.358 Q64.9272 790.148 58.3387 796.355 Q51.7183 802.561 40.2919 802.561 Q28.8336 802.561 22.2451 796.355 Q15.6248 790.148 15.6248 779.358 Q15.6248 775.093 16.7706 771.337 Q17.8846 767.55 20.1444 764.24 Z" fill="#000000" fill-rule="nonzero" fill-opacity="1"></path><path clip-path="url(#clip140)" d="M32.4621 740.75 Q32.4621 745.461 36.1542 748.198 Q39.8145 750.935 46.212 750.935 Q52.6095 750.935 56.3017 748.23 Q59.9619 745.493 59.9619 740.75 Q59.9619 736.071 56.2698 733.334 Q52.5777 730.597 46.212 730.597 Q39.8781 730.597 36.186 733.334 Q32.4621 736.071 32.4621 740.75 M27.4968 740.75 Q27.4968 733.111 32.4621 728.751 Q37.4273 724.39 46.212 724.39 Q54.9649 724.39 59.9619 728.751 Q64.9272 733.111 64.9272 740.75 Q64.9272 748.421 59.9619 752.781 Q54.9649 757.11 46.212 757.11 Q37.4273 757.11 32.4621 752.781 Q27.4968 748.421 27.4968 740.75 Z" fill="#000000" fill-rule="nonzero" fill-opacity="1"></path><path clip-path="url(#clip140)" d="M35.1993 686.928 Q31.2526 684.732 29.3747 681.676 Q27.4968 678.621 27.4968 674.483 Q27.4968 668.913 31.4117 665.889 Q35.2948 662.866 42.4881 662.866 L64.0042 662.866 L64.0042 668.754 L42.679 668.754 Q37.5546 668.754 35.072 670.568 Q32.5894 672.382 32.5894 676.106 Q32.5894 680.658 35.6131 683.3 Q38.6368 685.941 43.8567 685.941 L64.0042 685.941 L64.0042 691.83 L42.679 691.83 Q37.5228 691.83 35.072 693.644 Q32.5894 695.458 32.5894 699.246 Q32.5894 703.734 35.6449 706.375 Q38.6686 709.017 43.8567 709.017 L64.0042 709.017 L64.0042 714.905 L28.3562 714.905 L28.3562 709.017 L33.8944 709.017 Q30.616 707.012 29.0564 704.211 Q27.4968 701.41 27.4968 697.559 Q27.4968 693.676 29.4702 690.97 Q31.4436 688.233 35.1993 686.928 Z" fill="#000000" fill-rule="nonzero" fill-opacity="1"></path><path clip-path="url(#clip140)" d="M58.657 645.519 L77.5631 645.519 L77.5631 651.407 L28.3562 651.407 L28.3562 645.519 L33.7671 645.519 Q30.5842 643.673 29.0564 640.872 Q27.4968 638.039 27.4968 634.125 Q27.4968 627.632 32.6531 623.589 Q37.8093 619.515 46.212 619.515 Q54.6147 619.515 59.771 623.589 Q64.9272 627.632 64.9272 634.125 Q64.9272 638.039 63.3994 640.872 Q61.8398 643.673 58.657 645.519 M46.212 625.595 Q39.7508 625.595 36.0905 628.268 Q32.3984 630.91 32.3984 635.557 Q32.3984 640.204 36.0905 642.877 Q39.7508 645.519 46.212 645.519 Q52.6732 645.519 56.3653 642.877 Q60.0256 640.204 60.0256 635.557 Q60.0256 630.91 56.3653 628.268 Q52.6732 625.595 46.212 625.595 Z" fill="#000000" fill-rule="nonzero" fill-opacity="1"></path><path clip-path="url(#clip140)" d="M32.4621 595.994 Q32.4621 600.705 36.1542 603.442 Q39.8145 606.179 46.212 606.179 Q52.6095 606.179 56.3017 603.474 Q59.9619 600.736 59.9619 595.994 Q59.9619 591.315 56.2698 588.578 Q52.5777 585.841 46.212 585.841 Q39.8781 585.841 36.186 588.578 Q32.4621 591.315 32.4621 595.994 M27.4968 595.994 Q27.4968 588.355 32.4621 583.995 Q37.4273 579.634 46.212 579.634 Q54.9649 579.634 59.9619 583.995 Q64.9272 588.355 64.9272 595.994 Q64.9272 603.665 59.9619 608.025 Q54.9649 612.354 46.212 612.354 Q37.4273 612.354 32.4621 608.025 Q27.4968 603.665 27.4968 595.994 Z" fill="#000000" fill-rule="nonzero" fill-opacity="1"></path><path clip-path="url(#clip140)" d="M42.4881 540.294 L64.0042 540.294 L64.0042 546.15 L42.679 546.15 Q37.6183 546.15 35.1038 548.124 Q32.5894 550.097 32.5894 554.044 Q32.5894 558.786 35.6131 561.524 Q38.6368 564.261 43.8567 564.261 L64.0042 564.261 L64.0042 570.149 L28.3562 570.149 L28.3562 564.261 L33.8944 564.261 Q30.6797 562.16 29.0883 559.327 Q27.4968 556.463 27.4968 552.739 Q27.4968 546.596 31.3163 543.445 Q35.1038 540.294 42.4881 540.294 Z" fill="#000000" fill-rule="nonzero" fill-opacity="1"></path><path clip-path="url(#clip140)" d="M44.7161 498.121 L47.5806 498.121 L47.5806 525.048 Q53.6281 524.666 56.8109 521.42 Q59.9619 518.141 59.9619 512.317 Q59.9619 508.943 59.1344 505.792 Q58.3069 502.609 56.6518 499.49 L62.1899 499.49 Q63.5267 502.641 64.227 505.951 Q64.9272 509.261 64.9272 512.667 Q64.9272 521.197 59.9619 526.194 Q54.9967 531.159 46.5303 531.159 Q37.7774 531.159 32.6531 526.449 Q27.4968 521.706 27.4968 513.685 Q27.4968 506.492 32.1438 502.323 Q36.7589 498.121 44.7161 498.121 M42.9973 503.978 Q38.1912 504.041 35.3266 506.683 Q32.4621 509.293 32.4621 513.622 Q32.4621 518.523 35.2312 521.483 Q38.0002 524.412 43.0292 524.857 L42.9973 503.978 Z" fill="#000000" fill-rule="nonzero" fill-opacity="1"></path><path clip-path="url(#clip140)" d="M42.4881 458.877 L64.0042 458.877 L64.0042 464.733 L42.679 464.733 Q37.6183 464.733 35.1038 466.706 Q32.5894 468.68 32.5894 472.627 Q32.5894 477.369 35.6131 480.106 Q38.6368 482.844 43.8567 482.844 L64.0042 482.844 L64.0042 488.732 L28.3562 488.732 L28.3562 482.844 L33.8944 482.844 Q30.6797 480.743 29.0883 477.91 Q27.4968 475.046 27.4968 471.322 Q27.4968 465.179 31.3163 462.028 Q35.1038 458.877 42.4881 458.877 Z" fill="#000000" fill-rule="nonzero" fill-opacity="1"></path><path clip-path="url(#clip140)" d="M18.2347 441.403 L28.3562 441.403 L28.3562 429.34 L32.9077 429.34 L32.9077 441.403 L52.2594 441.403 Q56.6199 441.403 57.8613 440.225 Q59.1026 439.016 59.1026 435.355 L59.1026 429.34 L64.0042 429.34 L64.0042 435.355 Q64.0042 442.135 61.4897 444.713 Q58.9434 447.291 52.2594 447.291 L32.9077 447.291 L32.9077 451.588 L28.3562 451.588 L28.3562 447.291 L18.2347 447.291 L18.2347 441.403 Z" fill="#000000" fill-rule="nonzero" fill-opacity="1"></path><path clip-path="url(#clip140)" d="M58.5933 394.551 L58.5933 372.112 L64.0042 372.112 L64.0042 402.286 L58.5933 402.286 Q54.8057 398.625 48.44 392.323 Q42.0425 385.989 40.1964 384.366 Q36.7271 381.279 34.34 380.069 Q31.921 378.828 29.5975 378.828 Q25.8099 378.828 23.4228 381.501 Q21.0356 384.143 21.0356 388.408 Q21.0356 391.432 22.086 394.806 Q23.1363 398.148 25.2688 401.967 L18.7758 401.967 Q17.2162 398.084 16.4205 394.71 Q15.6248 391.336 15.6248 388.536 Q15.6248 381.151 19.3169 376.759 Q23.009 372.367 29.1837 372.367 Q32.112 372.367 34.7537 373.481 Q37.3637 374.563 40.9285 377.459 Q41.8515 378.255 46.2757 382.52 Q50.668 386.785 58.5933 394.551 Z" fill="#000000" fill-rule="nonzero" fill-opacity="1"></path><line clip-path="url(#clip142)" x1="2238.39" y1="1275.42" x2="2238.39" y2="1259.42" style="stroke:#ac8d18; stroke-width:3.2; stroke-opacity:1"></line>
<line clip-path="url(#clip142)" x1="2238.39" y1="1275.42" x2="2222.39" y2="1275.42" style="stroke:#ac8d18; stroke-width:3.2; stroke-opacity:1"></line>
<line clip-path="url(#clip142)" x1="2238.39" y1="1275.42" x2="2238.39" y2="1291.42" style="stroke:#ac8d18; stroke-width:3.2; stroke-opacity:1"></line>
<line clip-path="url(#clip142)" x1="2238.39" y1="1275.42" x2="2254.39" y2="1275.42" style="stroke:#ac8d18; stroke-width:3.2; stroke-opacity:1"></line>
<line clip-path="url(#clip142)" x1="2206.48" y1="1116.13" x2="2206.48" y2="1100.13" style="stroke:#c271d2; stroke-width:3.2; stroke-opacity:1"></line>
<line clip-path="url(#clip142)" x1="2206.48" y1="1116.13" x2="2190.48" y2="1116.13" style="stroke:#c271d2; stroke-width:3.2; stroke-opacity:1"></line>
<line clip-path="url(#clip142)" x1="2206.48" y1="1116.13" x2="2206.48" y2="1132.13" style="stroke:#c271d2; stroke-width:3.2; stroke-opacity:1"></line>
<line clip-path="url(#clip142)" x1="2206.48" y1="1116.13" x2="2222.48" y2="1116.13" style="stroke:#c271d2; stroke-width:3.2; stroke-opacity:1"></line>
<line clip-path="url(#clip142)" x1="2202.36" y1="1110.99" x2="2202.36" y2="1094.99" style="stroke:#c271d2; stroke-width:3.2; stroke-opacity:1"></line>
<line clip-path="url(#clip142)" x1="2202.36" y1="1110.99" x2="2186.36" y2="1110.99" style="stroke:#c271d2; stroke-width:3.2; stroke-opacity:1"></line>
<line clip-path="url(#clip142)" x1="2202.36" y1="1110.99" x2="2202.36" y2="1126.99" style="stroke:#c271d2; stroke-width:3.2; stroke-opacity:1"></line>
<line clip-path="url(#clip142)" x1="2202.36" y1="1110.99" x2="2218.36" y2="1110.99" style="stroke:#c271d2; stroke-width:3.2; stroke-opacity:1"></line>
<line clip-path="url(#clip142)" x1="2280.08" y1="428.562" x2="2280.08" y2="412.562" style="stroke:#e26f46; stroke-width:3.2; stroke-opacity:1"></line>
<line clip-path="url(#clip142)" x1="2280.08" y1="428.562" x2="2264.08" y2="428.562" style="stroke:#e26f46; stroke-width:3.2; stroke-opacity:1"></line>
<line clip-path="url(#clip142)" x1="2280.08" y1="428.562" x2="2280.08" y2="444.562" style="stroke:#e26f46; stroke-width:3.2; stroke-opacity:1"></line>
<line clip-path="url(#clip142)" x1="2280.08" y1="428.562" x2="2296.08" y2="428.562" style="stroke:#e26f46; stroke-width:3.2; stroke-opacity:1"></line>
<line clip-path="url(#clip142)" x1="2190.67" y1="705.113" x2="2190.67" y2="689.113" style="stroke:#e26f46; stroke-width:3.2; stroke-opacity:1"></line>
<line clip-path="url(#clip142)" x1="2190.67" y1="705.113" x2="2174.67" y2="705.113" style="stroke:#e26f46; stroke-width:3.2; stroke-opacity:1"></line>
<line clip-path="url(#clip142)" x1="2190.67" y1="705.113" x2="2190.67" y2="721.113" style="stroke:#e26f46; stroke-width:3.2; stroke-opacity:1"></line>
<line clip-path="url(#clip142)" x1="2190.67" y1="705.113" x2="2206.67" y2="705.113" style="stroke:#e26f46; stroke-width:3.2; stroke-opacity:1"></line>
<line clip-path="url(#clip142)" x1="2239.23" y1="1106.08" x2="2239.23" y2="1090.08" style="stroke:#c271d2; stroke-width:3.2; stroke-opacity:1"></line>
<line clip-path="url(#clip142)" x1="2239.23" y1="1106.08" x2="2223.23" y2="1106.08" style="stroke:#c271d2; stroke-width:3.2; stroke-opacity:1"></line>
<line clip-path="url(#clip142)" x1="2239.23" y1="1106.08" x2="2239.23" y2="1122.08" style="stroke:#c271d2; stroke-width:3.2; stroke-opacity:1"></line>
<line clip-path="url(#clip142)" x1="2239.23" y1="1106.08" x2="2255.23" y2="1106.08" style="stroke:#c271d2; stroke-width:3.2; stroke-opacity:1"></line>
<line clip-path="url(#clip142)" x1="1940.95" y1="1070.43" x2="1940.95" y2="1054.43" style="stroke:#009af9; stroke-width:3.2; stroke-opacity:1"></line>
<line clip-path="url(#clip142)" x1="1940.95" y1="1070.43" x2="1924.95" y2="1070.43" style="stroke:#009af9; stroke-width:3.2; stroke-opacity:1"></line>
<line clip-path="url(#clip142)" x1="1940.95" y1="1070.43" x2="1940.95" y2="1086.43" style="stroke:#009af9; stroke-width:3.2; stroke-opacity:1"></line>
<line clip-path="url(#clip142)" x1="1940.95" y1="1070.43" x2="1956.95" y2="1070.43" style="stroke:#009af9; stroke-width:3.2; stroke-opacity:1"></line>
<line clip-path="url(#clip142)" x1="2236.35" y1="1162.69" x2="2236.35" y2="1146.69" style="stroke:#ac8d18; stroke-width:3.2; stroke-opacity:1"></line>
<line clip-path="url(#clip142)" x1="2236.35" y1="1162.69" x2="2220.35" y2="1162.69" style="stroke:#ac8d18; stroke-width:3.2; stroke-opacity:1"></line>
<line clip-path="url(#clip142)" x1="2236.35" y1="1162.69" x2="2236.35" y2="1178.69" style="stroke:#ac8d18; stroke-width:3.2; stroke-opacity:1"></line>
<line clip-path="url(#clip142)" x1="2236.35" y1="1162.69" x2="2252.35" y2="1162.69" style="stroke:#ac8d18; stroke-width:3.2; stroke-opacity:1"></line>
<line clip-path="url(#clip142)" x1="1998.87" y1="1183.49" x2="1998.87" y2="1167.49" style="stroke:#009af9; stroke-width:3.2; stroke-opacity:1"></line>
<line clip-path="url(#clip142)" x1="1998.87" y1="1183.49" x2="1982.87" y2="1183.49" style="stroke:#009af9; stroke-width:3.2; stroke-opacity:1"></line>
<line clip-path="url(#clip142)" x1="1998.87" y1="1183.49" x2="1998.87" y2="1199.49" style="stroke:#009af9; stroke-width:3.2; stroke-opacity:1"></line>
<line clip-path="url(#clip142)" x1="1998.87" y1="1183.49" x2="2014.87" y2="1183.49" style="stroke:#009af9; stroke-width:3.2; stroke-opacity:1"></line>
<line clip-path="url(#clip142)" x1="1723.57" y1="1325.56" x2="1723.57" y2="1309.56" style="stroke:#009af9; stroke-width:3.2; stroke-opacity:1"></line>
<line clip-path="url(#clip142)" x1="1723.57" y1="1325.56" x2="1707.57" y2="1325.56" style="stroke:#009af9; stroke-width:3.2; stroke-opacity:1"></line>
<line clip-path="url(#clip142)" x1="1723.57" y1="1325.56" x2="1723.57" y2="1341.56" style="stroke:#009af9; stroke-width:3.2; stroke-opacity:1"></line>
<line clip-path="url(#clip142)" x1="1723.57" y1="1325.56" x2="1739.57" y2="1325.56" style="stroke:#009af9; stroke-width:3.2; stroke-opacity:1"></line>
<line clip-path="url(#clip142)" x1="2249.77" y1="686.962" x2="2249.77" y2="670.962" style="stroke:#e26f46; stroke-width:3.2; stroke-opacity:1"></line>
<line clip-path="url(#clip142)" x1="2249.77" y1="686.962" x2="2233.77" y2="686.962" style="stroke:#e26f46; stroke-width:3.2; stroke-opacity:1"></line>
<line clip-path="url(#clip142)" x1="2249.77" y1="686.962" x2="2249.77" y2="702.962" style="stroke:#e26f46; stroke-width:3.2; stroke-opacity:1"></line>
<line clip-path="url(#clip142)" x1="2249.77" y1="686.962" x2="2265.77" y2="686.962" style="stroke:#e26f46; stroke-width:3.2; stroke-opacity:1"></line>
<line clip-path="url(#clip142)" x1="271.369" y1="86.1857" x2="271.369" y2="70.1857" style="stroke:#3da44d; stroke-width:3.2; stroke-opacity:1"></line>
<line clip-path="url(#clip142)" x1="271.369" y1="86.1857" x2="255.369" y2="86.1857" style="stroke:#3da44d; stroke-width:3.2; stroke-opacity:1"></line>
<line clip-path="url(#clip142)" x1="271.369" y1="86.1857" x2="271.369" y2="102.186" style="stroke:#3da44d; stroke-width:3.2; stroke-opacity:1"></line>
<line clip-path="url(#clip142)" x1="271.369" y1="86.1857" x2="287.369" y2="86.1857" style="stroke:#3da44d; stroke-width:3.2; stroke-opacity:1"></line>
<line clip-path="url(#clip142)" x1="2261.73" y1="422.306" x2="2261.73" y2="406.306" style="stroke:#e26f46; stroke-width:3.2; stroke-opacity:1"></line>
<line clip-path="url(#clip142)" x1="2261.73" y1="422.306" x2="2245.73" y2="422.306" style="stroke:#e26f46; stroke-width:3.2; stroke-opacity:1"></line>
<line clip-path="url(#clip142)" x1="2261.73" y1="422.306" x2="2261.73" y2="438.306" style="stroke:#e26f46; stroke-width:3.2; stroke-opacity:1"></line>
<line clip-path="url(#clip142)" x1="2261.73" y1="422.306" x2="2277.73" y2="422.306" style="stroke:#e26f46; stroke-width:3.2; stroke-opacity:1"></line>
<line clip-path="url(#clip142)" x1="2225.76" y1="1103.8" x2="2225.76" y2="1087.8" style="stroke:#c271d2; stroke-width:3.2; stroke-opacity:1"></line>
<line clip-path="url(#clip142)" x1="2225.76" y1="1103.8" x2="2209.76" y2="1103.8" style="stroke:#c271d2; stroke-width:3.2; stroke-opacity:1"></line>
<line clip-path="url(#clip142)" x1="2225.76" y1="1103.8" x2="2225.76" y2="1119.8" style="stroke:#c271d2; stroke-width:3.2; stroke-opacity:1"></line>
<line clip-path="url(#clip142)" x1="2225.76" y1="1103.8" x2="2241.76" y2="1103.8" style="stroke:#c271d2; stroke-width:3.2; stroke-opacity:1"></line>
<line clip-path="url(#clip142)" x1="2223.63" y1="1107.06" x2="2223.63" y2="1091.06" style="stroke:#c271d2; stroke-width:3.2; stroke-opacity:1"></line>
<line clip-path="url(#clip142)" x1="2223.63" y1="1107.06" x2="2207.63" y2="1107.06" style="stroke:#c271d2; stroke-width:3.2; stroke-opacity:1"></line>
<line clip-path="url(#clip142)" x1="2223.63" y1="1107.06" x2="2223.63" y2="1123.06" style="stroke:#c271d2; stroke-width:3.2; stroke-opacity:1"></line>
<line clip-path="url(#clip142)" x1="2223.63" y1="1107.06" x2="2239.63" y2="1107.06" style="stroke:#c271d2; stroke-width:3.2; stroke-opacity:1"></line>
<line clip-path="url(#clip142)" x1="2045.54" y1="1099.14" x2="2045.54" y2="1083.14" style="stroke:#009af9; stroke-width:3.2; stroke-opacity:1"></line>
<line clip-path="url(#clip142)" x1="2045.54" y1="1099.14" x2="2029.54" y2="1099.14" style="stroke:#009af9; stroke-width:3.2; stroke-opacity:1"></line>
<line clip-path="url(#clip142)" x1="2045.54" y1="1099.14" x2="2045.54" y2="1115.14" style="stroke:#009af9; stroke-width:3.2; stroke-opacity:1"></line>
<line clip-path="url(#clip142)" x1="2045.54" y1="1099.14" x2="2061.54" y2="1099.14" style="stroke:#009af9; stroke-width:3.2; stroke-opacity:1"></line>
<line clip-path="url(#clip142)" x1="2179.75" y1="1099.83" x2="2179.75" y2="1083.83" style="stroke:#c271d2; stroke-width:3.2; stroke-opacity:1"></line>
<line clip-path="url(#clip142)" x1="2179.75" y1="1099.83" x2="2163.75" y2="1099.83" style="stroke:#c271d2; stroke-width:3.2; stroke-opacity:1"></line>
<line clip-path="url(#clip142)" x1="2179.75" y1="1099.83" x2="2179.75" y2="1115.83" style="stroke:#c271d2; stroke-width:3.2; stroke-opacity:1"></line>
<line clip-path="url(#clip142)" x1="2179.75" y1="1099.83" x2="2195.75" y2="1099.83" style="stroke:#c271d2; stroke-width:3.2; stroke-opacity:1"></line>
<line clip-path="url(#clip142)" x1="2223.98" y1="860.158" x2="2223.98" y2="844.158" style="stroke:#c271d2; stroke-width:3.2; stroke-opacity:1"></line>
<line clip-path="url(#clip142)" x1="2223.98" y1="860.158" x2="2207.98" y2="860.158" style="stroke:#c271d2; stroke-width:3.2; stroke-opacity:1"></line>
<line clip-path="url(#clip142)" x1="2223.98" y1="860.158" x2="2223.98" y2="876.158" style="stroke:#c271d2; stroke-width:3.2; stroke-opacity:1"></line>
<line clip-path="url(#clip142)" x1="2223.98" y1="860.158" x2="2239.98" y2="860.158" style="stroke:#c271d2; stroke-width:3.2; stroke-opacity:1"></line>
<line clip-path="url(#clip142)" x1="2221.14" y1="1105.15" x2="2221.14" y2="1089.15" style="stroke:#c271d2; stroke-width:3.2; stroke-opacity:1"></line>
<line clip-path="url(#clip142)" x1="2221.14" y1="1105.15" x2="2205.14" y2="1105.15" style="stroke:#c271d2; stroke-width:3.2; stroke-opacity:1"></line>
<line clip-path="url(#clip142)" x1="2221.14" y1="1105.15" x2="2221.14" y2="1121.15" style="stroke:#c271d2; stroke-width:3.2; stroke-opacity:1"></line>
<line clip-path="url(#clip142)" x1="2221.14" y1="1105.15" x2="2237.14" y2="1105.15" style="stroke:#c271d2; stroke-width:3.2; stroke-opacity:1"></line>
<line clip-path="url(#clip142)" x1="2275.32" y1="430.116" x2="2275.32" y2="414.116" style="stroke:#e26f46; stroke-width:3.2; stroke-opacity:1"></line>
<line clip-path="url(#clip142)" x1="2275.32" y1="430.116" x2="2259.32" y2="430.116" style="stroke:#e26f46; stroke-width:3.2; stroke-opacity:1"></line>
<line clip-path="url(#clip142)" x1="2275.32" y1="430.116" x2="2275.32" y2="446.116" style="stroke:#e26f46; stroke-width:3.2; stroke-opacity:1"></line>
<line clip-path="url(#clip142)" x1="2275.32" y1="430.116" x2="2291.32" y2="430.116" style="stroke:#e26f46; stroke-width:3.2; stroke-opacity:1"></line>
<line clip-path="url(#clip142)" x1="2021.78" y1="1181.26" x2="2021.78" y2="1165.26" style="stroke:#009af9; stroke-width:3.2; stroke-opacity:1"></line>
<line clip-path="url(#clip142)" x1="2021.78" y1="1181.26" x2="2005.78" y2="1181.26" style="stroke:#009af9; stroke-width:3.2; stroke-opacity:1"></line>
<line clip-path="url(#clip142)" x1="2021.78" y1="1181.26" x2="2021.78" y2="1197.26" style="stroke:#009af9; stroke-width:3.2; stroke-opacity:1"></line>
<line clip-path="url(#clip142)" x1="2021.78" y1="1181.26" x2="2037.78" y2="1181.26" style="stroke:#009af9; stroke-width:3.2; stroke-opacity:1"></line>
<line clip-path="url(#clip142)" x1="2253.53" y1="1107.09" x2="2253.53" y2="1091.09" style="stroke:#c271d2; stroke-width:3.2; stroke-opacity:1"></line>
<line clip-path="url(#clip142)" x1="2253.53" y1="1107.09" x2="2237.53" y2="1107.09" style="stroke:#c271d2; stroke-width:3.2; stroke-opacity:1"></line>
<line clip-path="url(#clip142)" x1="2253.53" y1="1107.09" x2="2253.53" y2="1123.09" style="stroke:#c271d2; stroke-width:3.2; stroke-opacity:1"></line>
<line clip-path="url(#clip142)" x1="2253.53" y1="1107.09" x2="2269.53" y2="1107.09" style="stroke:#c271d2; stroke-width:3.2; stroke-opacity:1"></line>
<line clip-path="url(#clip142)" x1="2232.9" y1="1104.33" x2="2232.9" y2="1088.33" style="stroke:#c271d2; stroke-width:3.2; stroke-opacity:1"></line>
<line clip-path="url(#clip142)" x1="2232.9" y1="1104.33" x2="2216.9" y2="1104.33" style="stroke:#c271d2; stroke-width:3.2; stroke-opacity:1"></line>
<line clip-path="url(#clip142)" x1="2232.9" y1="1104.33" x2="2232.9" y2="1120.33" style="stroke:#c271d2; stroke-width:3.2; stroke-opacity:1"></line>
<line clip-path="url(#clip142)" x1="2232.9" y1="1104.33" x2="2248.9" y2="1104.33" style="stroke:#c271d2; stroke-width:3.2; stroke-opacity:1"></line>
<line clip-path="url(#clip142)" x1="2233.09" y1="1104.03" x2="2233.09" y2="1088.03" style="stroke:#c271d2; stroke-width:3.2; stroke-opacity:1"></line>
<line clip-path="url(#clip142)" x1="2233.09" y1="1104.03" x2="2217.09" y2="1104.03" style="stroke:#c271d2; stroke-width:3.2; stroke-opacity:1"></line>
<line clip-path="url(#clip142)" x1="2233.09" y1="1104.03" x2="2233.09" y2="1120.03" style="stroke:#c271d2; stroke-width:3.2; stroke-opacity:1"></line>
<line clip-path="url(#clip142)" x1="2233.09" y1="1104.03" x2="2249.09" y2="1104.03" style="stroke:#c271d2; stroke-width:3.2; stroke-opacity:1"></line>
<line clip-path="url(#clip142)" x1="2277.05" y1="595.534" x2="2277.05" y2="579.534" style="stroke:#e26f46; stroke-width:3.2; stroke-opacity:1"></line>
<line clip-path="url(#clip142)" x1="2277.05" y1="595.534" x2="2261.05" y2="595.534" style="stroke:#e26f46; stroke-width:3.2; stroke-opacity:1"></line>
<line clip-path="url(#clip142)" x1="2277.05" y1="595.534" x2="2277.05" y2="611.534" style="stroke:#e26f46; stroke-width:3.2; stroke-opacity:1"></line>
<line clip-path="url(#clip142)" x1="2277.05" y1="595.534" x2="2293.05" y2="595.534" style="stroke:#e26f46; stroke-width:3.2; stroke-opacity:1"></line>
<line clip-path="url(#clip142)" x1="2282.11" y1="425.453" x2="2282.11" y2="409.453" style="stroke:#e26f46; stroke-width:3.2; stroke-opacity:1"></line>
<line clip-path="url(#clip142)" x1="2282.11" y1="425.453" x2="2266.11" y2="425.453" style="stroke:#e26f46; stroke-width:3.2; stroke-opacity:1"></line>
<line clip-path="url(#clip142)" x1="2282.11" y1="425.453" x2="2282.11" y2="441.453" style="stroke:#e26f46; stroke-width:3.2; stroke-opacity:1"></line>
<line clip-path="url(#clip142)" x1="2282.11" y1="425.453" x2="2298.11" y2="425.453" style="stroke:#e26f46; stroke-width:3.2; stroke-opacity:1"></line>
<line clip-path="url(#clip142)" x1="2236.77" y1="1104.12" x2="2236.77" y2="1088.12" style="stroke:#c271d2; stroke-width:3.2; stroke-opacity:1"></line>
<line clip-path="url(#clip142)" x1="2236.77" y1="1104.12" x2="2220.77" y2="1104.12" style="stroke:#c271d2; stroke-width:3.2; stroke-opacity:1"></line>
<line clip-path="url(#clip142)" x1="2236.77" y1="1104.12" x2="2236.77" y2="1120.12" style="stroke:#c271d2; stroke-width:3.2; stroke-opacity:1"></line>
<line clip-path="url(#clip142)" x1="2236.77" y1="1104.12" x2="2252.77" y2="1104.12" style="stroke:#c271d2; stroke-width:3.2; stroke-opacity:1"></line>
<line clip-path="url(#clip142)" x1="2244.43" y1="1219.69" x2="2244.43" y2="1203.69" style="stroke:#ac8d18; stroke-width:3.2; stroke-opacity:1"></line>
<line clip-path="url(#clip142)" x1="2244.43" y1="1219.69" x2="2228.43" y2="1219.69" style="stroke:#ac8d18; stroke-width:3.2; stroke-opacity:1"></line>
<line clip-path="url(#clip142)" x1="2244.43" y1="1219.69" x2="2244.43" y2="1235.69" style="stroke:#ac8d18; stroke-width:3.2; stroke-opacity:1"></line>
<line clip-path="url(#clip142)" x1="2244.43" y1="1219.69" x2="2260.43" y2="1219.69" style="stroke:#ac8d18; stroke-width:3.2; stroke-opacity:1"></line>
<line clip-path="url(#clip142)" x1="2262.07" y1="421.796" x2="2262.07" y2="405.796" style="stroke:#e26f46; stroke-width:3.2; stroke-opacity:1"></line>
<line clip-path="url(#clip142)" x1="2262.07" y1="421.796" x2="2246.07" y2="421.796" style="stroke:#e26f46; stroke-width:3.2; stroke-opacity:1"></line>
<line clip-path="url(#clip142)" x1="2262.07" y1="421.796" x2="2262.07" y2="437.796" style="stroke:#e26f46; stroke-width:3.2; stroke-opacity:1"></line>
<line clip-path="url(#clip142)" x1="2262.07" y1="421.796" x2="2278.07" y2="421.796" style="stroke:#e26f46; stroke-width:3.2; stroke-opacity:1"></line>
<line clip-path="url(#clip142)" x1="2265.35" y1="428.206" x2="2265.35" y2="412.206" style="stroke:#e26f46; stroke-width:3.2; stroke-opacity:1"></line>
<line clip-path="url(#clip142)" x1="2265.35" y1="428.206" x2="2249.35" y2="428.206" style="stroke:#e26f46; stroke-width:3.2; stroke-opacity:1"></line>
<line clip-path="url(#clip142)" x1="2265.35" y1="428.206" x2="2265.35" y2="444.206" style="stroke:#e26f46; stroke-width:3.2; stroke-opacity:1"></line>
<line clip-path="url(#clip142)" x1="2265.35" y1="428.206" x2="2281.35" y2="428.206" style="stroke:#e26f46; stroke-width:3.2; stroke-opacity:1"></line>
<line clip-path="url(#clip142)" x1="2257.68" y1="1106.46" x2="2257.68" y2="1090.46" style="stroke:#c271d2; stroke-width:3.2; stroke-opacity:1"></line>
<line clip-path="url(#clip142)" x1="2257.68" y1="1106.46" x2="2241.68" y2="1106.46" style="stroke:#c271d2; stroke-width:3.2; stroke-opacity:1"></line>
<line clip-path="url(#clip142)" x1="2257.68" y1="1106.46" x2="2257.68" y2="1122.46" style="stroke:#c271d2; stroke-width:3.2; stroke-opacity:1"></line>
<line clip-path="url(#clip142)" x1="2257.68" y1="1106.46" x2="2273.68" y2="1106.46" style="stroke:#c271d2; stroke-width:3.2; stroke-opacity:1"></line>
<line clip-path="url(#clip142)" x1="2251" y1="763.393" x2="2251" y2="747.393" style="stroke:#e26f46; stroke-width:3.2; stroke-opacity:1"></line>
<line clip-path="url(#clip142)" x1="2251" y1="763.393" x2="2235" y2="763.393" style="stroke:#e26f46; stroke-width:3.2; stroke-opacity:1"></line>
<line clip-path="url(#clip142)" x1="2251" y1="763.393" x2="2251" y2="779.393" style="stroke:#e26f46; stroke-width:3.2; stroke-opacity:1"></line>
<line clip-path="url(#clip142)" x1="2251" y1="763.393" x2="2267" y2="763.393" style="stroke:#e26f46; stroke-width:3.2; stroke-opacity:1"></line>
<line clip-path="url(#clip142)" x1="2098.15" y1="1104.45" x2="2098.15" y2="1088.45" style="stroke:#c271d2; stroke-width:3.2; stroke-opacity:1"></line>
<line clip-path="url(#clip142)" x1="2098.15" y1="1104.45" x2="2082.15" y2="1104.45" style="stroke:#c271d2; stroke-width:3.2; stroke-opacity:1"></line>
<line clip-path="url(#clip142)" x1="2098.15" y1="1104.45" x2="2098.15" y2="1120.45" style="stroke:#c271d2; stroke-width:3.2; stroke-opacity:1"></line>
<line clip-path="url(#clip142)" x1="2098.15" y1="1104.45" x2="2114.15" y2="1104.45" style="stroke:#c271d2; stroke-width:3.2; stroke-opacity:1"></line>
<line clip-path="url(#clip142)" x1="2240.62" y1="1103.95" x2="2240.62" y2="1087.95" style="stroke:#c271d2; stroke-width:3.2; stroke-opacity:1"></line>
<line clip-path="url(#clip142)" x1="2240.62" y1="1103.95" x2="2224.62" y2="1103.95" style="stroke:#c271d2; stroke-width:3.2; stroke-opacity:1"></line>
<line clip-path="url(#clip142)" x1="2240.62" y1="1103.95" x2="2240.62" y2="1119.95" style="stroke:#c271d2; stroke-width:3.2; stroke-opacity:1"></line>
<line clip-path="url(#clip142)" x1="2240.62" y1="1103.95" x2="2256.62" y2="1103.95" style="stroke:#c271d2; stroke-width:3.2; stroke-opacity:1"></line>
<line clip-path="url(#clip142)" x1="2292.13" y1="427.281" x2="2292.13" y2="411.281" style="stroke:#e26f46; stroke-width:3.2; stroke-opacity:1"></line>
<line clip-path="url(#clip142)" x1="2292.13" y1="427.281" x2="2276.13" y2="427.281" style="stroke:#e26f46; stroke-width:3.2; stroke-opacity:1"></line>
<line clip-path="url(#clip142)" x1="2292.13" y1="427.281" x2="2292.13" y2="443.281" style="stroke:#e26f46; stroke-width:3.2; stroke-opacity:1"></line>
<line clip-path="url(#clip142)" x1="2292.13" y1="427.281" x2="2308.13" y2="427.281" style="stroke:#e26f46; stroke-width:3.2; stroke-opacity:1"></line>
<line clip-path="url(#clip142)" x1="2231.76" y1="1169.71" x2="2231.76" y2="1153.71" style="stroke:#ac8d18; stroke-width:3.2; stroke-opacity:1"></line>
<line clip-path="url(#clip142)" x1="2231.76" y1="1169.71" x2="2215.76" y2="1169.71" style="stroke:#ac8d18; stroke-width:3.2; stroke-opacity:1"></line>
<line clip-path="url(#clip142)" x1="2231.76" y1="1169.71" x2="2231.76" y2="1185.71" style="stroke:#ac8d18; stroke-width:3.2; stroke-opacity:1"></line>
<line clip-path="url(#clip142)" x1="2231.76" y1="1169.71" x2="2247.76" y2="1169.71" style="stroke:#ac8d18; stroke-width:3.2; stroke-opacity:1"></line>
<line clip-path="url(#clip142)" x1="2231.1" y1="1054.87" x2="2231.1" y2="1038.87" style="stroke:#c271d2; stroke-width:3.2; stroke-opacity:1"></line>
<line clip-path="url(#clip142)" x1="2231.1" y1="1054.87" x2="2215.1" y2="1054.87" style="stroke:#c271d2; stroke-width:3.2; stroke-opacity:1"></line>
<line clip-path="url(#clip142)" x1="2231.1" y1="1054.87" x2="2231.1" y2="1070.87" style="stroke:#c271d2; stroke-width:3.2; stroke-opacity:1"></line>
<line clip-path="url(#clip142)" x1="2231.1" y1="1054.87" x2="2247.1" y2="1054.87" style="stroke:#c271d2; stroke-width:3.2; stroke-opacity:1"></line>
<line clip-path="url(#clip142)" x1="1604.57" y1="1098.43" x2="1604.57" y2="1082.43" style="stroke:#009af9; stroke-width:3.2; stroke-opacity:1"></line>
<line clip-path="url(#clip142)" x1="1604.57" y1="1098.43" x2="1588.57" y2="1098.43" style="stroke:#009af9; stroke-width:3.2; stroke-opacity:1"></line>
<line clip-path="url(#clip142)" x1="1604.57" y1="1098.43" x2="1604.57" y2="1114.43" style="stroke:#009af9; stroke-width:3.2; stroke-opacity:1"></line>
<line clip-path="url(#clip142)" x1="1604.57" y1="1098.43" x2="1620.57" y2="1098.43" style="stroke:#009af9; stroke-width:3.2; stroke-opacity:1"></line>
<line clip-path="url(#clip142)" x1="2177.38" y1="832.388" x2="2177.38" y2="816.388" style="stroke:#c271d2; stroke-width:3.2; stroke-opacity:1"></line>
<line clip-path="url(#clip142)" x1="2177.38" y1="832.388" x2="2161.38" y2="832.388" style="stroke:#c271d2; stroke-width:3.2; stroke-opacity:1"></line>
<line clip-path="url(#clip142)" x1="2177.38" y1="832.388" x2="2177.38" y2="848.388" style="stroke:#c271d2; stroke-width:3.2; stroke-opacity:1"></line>
<line clip-path="url(#clip142)" x1="2177.38" y1="832.388" x2="2193.38" y2="832.388" style="stroke:#c271d2; stroke-width:3.2; stroke-opacity:1"></line>
<line clip-path="url(#clip142)" x1="2245.35" y1="534.624" x2="2245.35" y2="518.624" style="stroke:#e26f46; stroke-width:3.2; stroke-opacity:1"></line>
<line clip-path="url(#clip142)" x1="2245.35" y1="534.624" x2="2229.35" y2="534.624" style="stroke:#e26f46; stroke-width:3.2; stroke-opacity:1"></line>
<line clip-path="url(#clip142)" x1="2245.35" y1="534.624" x2="2245.35" y2="550.624" style="stroke:#e26f46; stroke-width:3.2; stroke-opacity:1"></line>
<line clip-path="url(#clip142)" x1="2245.35" y1="534.624" x2="2261.35" y2="534.624" style="stroke:#e26f46; stroke-width:3.2; stroke-opacity:1"></line>
<line clip-path="url(#clip142)" x1="2151.51" y1="1102.98" x2="2151.51" y2="1086.98" style="stroke:#c271d2; stroke-width:3.2; stroke-opacity:1"></line>
<line clip-path="url(#clip142)" x1="2151.51" y1="1102.98" x2="2135.51" y2="1102.98" style="stroke:#c271d2; stroke-width:3.2; stroke-opacity:1"></line>
<line clip-path="url(#clip142)" x1="2151.51" y1="1102.98" x2="2151.51" y2="1118.98" style="stroke:#c271d2; stroke-width:3.2; stroke-opacity:1"></line>
<line clip-path="url(#clip142)" x1="2151.51" y1="1102.98" x2="2167.51" y2="1102.98" style="stroke:#c271d2; stroke-width:3.2; stroke-opacity:1"></line>
<line clip-path="url(#clip142)" x1="2243.69" y1="890.427" x2="2243.69" y2="874.427" style="stroke:#c271d2; stroke-width:3.2; stroke-opacity:1"></line>
<line clip-path="url(#clip142)" x1="2243.69" y1="890.427" x2="2227.69" y2="890.427" style="stroke:#c271d2; stroke-width:3.2; stroke-opacity:1"></line>
<line clip-path="url(#clip142)" x1="2243.69" y1="890.427" x2="2243.69" y2="906.427" style="stroke:#c271d2; stroke-width:3.2; stroke-opacity:1"></line>
<line clip-path="url(#clip142)" x1="2243.69" y1="890.427" x2="2259.69" y2="890.427" style="stroke:#c271d2; stroke-width:3.2; stroke-opacity:1"></line>
<line clip-path="url(#clip142)" x1="2206.16" y1="1110.91" x2="2206.16" y2="1094.91" style="stroke:#c271d2; stroke-width:3.2; stroke-opacity:1"></line>
<line clip-path="url(#clip142)" x1="2206.16" y1="1110.91" x2="2190.16" y2="1110.91" style="stroke:#c271d2; stroke-width:3.2; stroke-opacity:1"></line>
<line clip-path="url(#clip142)" x1="2206.16" y1="1110.91" x2="2206.16" y2="1126.91" style="stroke:#c271d2; stroke-width:3.2; stroke-opacity:1"></line>
<line clip-path="url(#clip142)" x1="2206.16" y1="1110.91" x2="2222.16" y2="1110.91" style="stroke:#c271d2; stroke-width:3.2; stroke-opacity:1"></line>
<line clip-path="url(#clip142)" x1="2061.11" y1="1023.05" x2="2061.11" y2="1007.05" style="stroke:#c271d2; stroke-width:3.2; stroke-opacity:1"></line>
<line clip-path="url(#clip142)" x1="2061.11" y1="1023.05" x2="2045.11" y2="1023.05" style="stroke:#c271d2; stroke-width:3.2; stroke-opacity:1"></line>
<line clip-path="url(#clip142)" x1="2061.11" y1="1023.05" x2="2061.11" y2="1039.05" style="stroke:#c271d2; stroke-width:3.2; stroke-opacity:1"></line>
<line clip-path="url(#clip142)" x1="2061.11" y1="1023.05" x2="2077.11" y2="1023.05" style="stroke:#c271d2; stroke-width:3.2; stroke-opacity:1"></line>
<line clip-path="url(#clip142)" x1="2291.91" y1="427.219" x2="2291.91" y2="411.219" style="stroke:#e26f46; stroke-width:3.2; stroke-opacity:1"></line>
<line clip-path="url(#clip142)" x1="2291.91" y1="427.219" x2="2275.91" y2="427.219" style="stroke:#e26f46; stroke-width:3.2; stroke-opacity:1"></line>
<line clip-path="url(#clip142)" x1="2291.91" y1="427.219" x2="2291.91" y2="443.219" style="stroke:#e26f46; stroke-width:3.2; stroke-opacity:1"></line>
<line clip-path="url(#clip142)" x1="2291.91" y1="427.219" x2="2307.91" y2="427.219" style="stroke:#e26f46; stroke-width:3.2; stroke-opacity:1"></line>
<line clip-path="url(#clip142)" x1="2242.24" y1="1023.17" x2="2242.24" y2="1007.17" style="stroke:#c271d2; stroke-width:3.2; stroke-opacity:1"></line>
<line clip-path="url(#clip142)" x1="2242.24" y1="1023.17" x2="2226.24" y2="1023.17" style="stroke:#c271d2; stroke-width:3.2; stroke-opacity:1"></line>
<line clip-path="url(#clip142)" x1="2242.24" y1="1023.17" x2="2242.24" y2="1039.17" style="stroke:#c271d2; stroke-width:3.2; stroke-opacity:1"></line>
<line clip-path="url(#clip142)" x1="2242.24" y1="1023.17" x2="2258.24" y2="1023.17" style="stroke:#c271d2; stroke-width:3.2; stroke-opacity:1"></line>
<line clip-path="url(#clip142)" x1="2227.82" y1="765.027" x2="2227.82" y2="749.027" style="stroke:#e26f46; stroke-width:3.2; stroke-opacity:1"></line>
<line clip-path="url(#clip142)" x1="2227.82" y1="765.027" x2="2211.82" y2="765.027" style="stroke:#e26f46; stroke-width:3.2; stroke-opacity:1"></line>
<line clip-path="url(#clip142)" x1="2227.82" y1="765.027" x2="2227.82" y2="781.027" style="stroke:#e26f46; stroke-width:3.2; stroke-opacity:1"></line>
<line clip-path="url(#clip142)" x1="2227.82" y1="765.027" x2="2243.82" y2="765.027" style="stroke:#e26f46; stroke-width:3.2; stroke-opacity:1"></line>
<line clip-path="url(#clip142)" x1="2237.71" y1="1160.61" x2="2237.71" y2="1144.61" style="stroke:#ac8d18; stroke-width:3.2; stroke-opacity:1"></line>
<line clip-path="url(#clip142)" x1="2237.71" y1="1160.61" x2="2221.71" y2="1160.61" style="stroke:#ac8d18; stroke-width:3.2; stroke-opacity:1"></line>
<line clip-path="url(#clip142)" x1="2237.71" y1="1160.61" x2="2237.71" y2="1176.61" style="stroke:#ac8d18; stroke-width:3.2; stroke-opacity:1"></line>
<line clip-path="url(#clip142)" x1="2237.71" y1="1160.61" x2="2253.71" y2="1160.61" style="stroke:#ac8d18; stroke-width:3.2; stroke-opacity:1"></line>
<line clip-path="url(#clip142)" x1="2023.82" y1="1260.3" x2="2023.82" y2="1244.3" style="stroke:#009af9; stroke-width:3.2; stroke-opacity:1"></line>
<line clip-path="url(#clip142)" x1="2023.82" y1="1260.3" x2="2007.82" y2="1260.3" style="stroke:#009af9; stroke-width:3.2; stroke-opacity:1"></line>
<line clip-path="url(#clip142)" x1="2023.82" y1="1260.3" x2="2023.82" y2="1276.3" style="stroke:#009af9; stroke-width:3.2; stroke-opacity:1"></line>
<line clip-path="url(#clip142)" x1="2023.82" y1="1260.3" x2="2039.82" y2="1260.3" style="stroke:#009af9; stroke-width:3.2; stroke-opacity:1"></line>
<line clip-path="url(#clip142)" x1="2117.3" y1="481.184" x2="2117.3" y2="465.184" style="stroke:#e26f46; stroke-width:3.2; stroke-opacity:1"></line>
<line clip-path="url(#clip142)" x1="2117.3" y1="481.184" x2="2101.3" y2="481.184" style="stroke:#e26f46; stroke-width:3.2; stroke-opacity:1"></line>
<line clip-path="url(#clip142)" x1="2117.3" y1="481.184" x2="2117.3" y2="497.184" style="stroke:#e26f46; stroke-width:3.2; stroke-opacity:1"></line>
<line clip-path="url(#clip142)" x1="2117.3" y1="481.184" x2="2133.3" y2="481.184" style="stroke:#e26f46; stroke-width:3.2; stroke-opacity:1"></line>
<line clip-path="url(#clip142)" x1="2224.91" y1="1105.11" x2="2224.91" y2="1089.11" style="stroke:#c271d2; stroke-width:3.2; stroke-opacity:1"></line>
<line clip-path="url(#clip142)" x1="2224.91" y1="1105.11" x2="2208.91" y2="1105.11" style="stroke:#c271d2; stroke-width:3.2; stroke-opacity:1"></line>
<line clip-path="url(#clip142)" x1="2224.91" y1="1105.11" x2="2224.91" y2="1121.11" style="stroke:#c271d2; stroke-width:3.2; stroke-opacity:1"></line>
<line clip-path="url(#clip142)" x1="2224.91" y1="1105.11" x2="2240.91" y2="1105.11" style="stroke:#c271d2; stroke-width:3.2; stroke-opacity:1"></line>
<line clip-path="url(#clip142)" x1="2139.01" y1="1099.15" x2="2139.01" y2="1083.15" style="stroke:#c271d2; stroke-width:3.2; stroke-opacity:1"></line>
<line clip-path="url(#clip142)" x1="2139.01" y1="1099.15" x2="2123.01" y2="1099.15" style="stroke:#c271d2; stroke-width:3.2; stroke-opacity:1"></line>
<line clip-path="url(#clip142)" x1="2139.01" y1="1099.15" x2="2139.01" y2="1115.15" style="stroke:#c271d2; stroke-width:3.2; stroke-opacity:1"></line>
<line clip-path="url(#clip142)" x1="2139.01" y1="1099.15" x2="2155.01" y2="1099.15" style="stroke:#c271d2; stroke-width:3.2; stroke-opacity:1"></line>
<line clip-path="url(#clip142)" x1="2275.69" y1="765.464" x2="2275.69" y2="749.464" style="stroke:#e26f46; stroke-width:3.2; stroke-opacity:1"></line>
<line clip-path="url(#clip142)" x1="2275.69" y1="765.464" x2="2259.69" y2="765.464" style="stroke:#e26f46; stroke-width:3.2; stroke-opacity:1"></line>
<line clip-path="url(#clip142)" x1="2275.69" y1="765.464" x2="2275.69" y2="781.464" style="stroke:#e26f46; stroke-width:3.2; stroke-opacity:1"></line>
<line clip-path="url(#clip142)" x1="2275.69" y1="765.464" x2="2291.69" y2="765.464" style="stroke:#e26f46; stroke-width:3.2; stroke-opacity:1"></line>
<line clip-path="url(#clip142)" x1="2255.38" y1="420.577" x2="2255.38" y2="404.577" style="stroke:#e26f46; stroke-width:3.2; stroke-opacity:1"></line>
<line clip-path="url(#clip142)" x1="2255.38" y1="420.577" x2="2239.38" y2="420.577" style="stroke:#e26f46; stroke-width:3.2; stroke-opacity:1"></line>
<line clip-path="url(#clip142)" x1="2255.38" y1="420.577" x2="2255.38" y2="436.577" style="stroke:#e26f46; stroke-width:3.2; stroke-opacity:1"></line>
<line clip-path="url(#clip142)" x1="2255.38" y1="420.577" x2="2271.38" y2="420.577" style="stroke:#e26f46; stroke-width:3.2; stroke-opacity:1"></line>
<line clip-path="url(#clip142)" x1="2178.24" y1="980.497" x2="2178.24" y2="964.497" style="stroke:#c271d2; stroke-width:3.2; stroke-opacity:1"></line>
<line clip-path="url(#clip142)" x1="2178.24" y1="980.497" x2="2162.24" y2="980.497" style="stroke:#c271d2; stroke-width:3.2; stroke-opacity:1"></line>
<line clip-path="url(#clip142)" x1="2178.24" y1="980.497" x2="2178.24" y2="996.497" style="stroke:#c271d2; stroke-width:3.2; stroke-opacity:1"></line>
<line clip-path="url(#clip142)" x1="2178.24" y1="980.497" x2="2194.24" y2="980.497" style="stroke:#c271d2; stroke-width:3.2; stroke-opacity:1"></line>
<line clip-path="url(#clip142)" x1="2274.31" y1="651.933" x2="2274.31" y2="635.933" style="stroke:#e26f46; stroke-width:3.2; stroke-opacity:1"></line>
<line clip-path="url(#clip142)" x1="2274.31" y1="651.933" x2="2258.31" y2="651.933" style="stroke:#e26f46; stroke-width:3.2; stroke-opacity:1"></line>
<line clip-path="url(#clip142)" x1="2274.31" y1="651.933" x2="2274.31" y2="667.933" style="stroke:#e26f46; stroke-width:3.2; stroke-opacity:1"></line>
<line clip-path="url(#clip142)" x1="2274.31" y1="651.933" x2="2290.31" y2="651.933" style="stroke:#e26f46; stroke-width:3.2; stroke-opacity:1"></line>
<line clip-path="url(#clip142)" x1="2284.85" y1="426.988" x2="2284.85" y2="410.988" style="stroke:#e26f46; stroke-width:3.2; stroke-opacity:1"></line>
<line clip-path="url(#clip142)" x1="2284.85" y1="426.988" x2="2268.85" y2="426.988" style="stroke:#e26f46; stroke-width:3.2; stroke-opacity:1"></line>
<line clip-path="url(#clip142)" x1="2284.85" y1="426.988" x2="2284.85" y2="442.988" style="stroke:#e26f46; stroke-width:3.2; stroke-opacity:1"></line>
<line clip-path="url(#clip142)" x1="2284.85" y1="426.988" x2="2300.85" y2="426.988" style="stroke:#e26f46; stroke-width:3.2; stroke-opacity:1"></line>
<line clip-path="url(#clip142)" x1="2207.13" y1="530.022" x2="2207.13" y2="514.022" style="stroke:#e26f46; stroke-width:3.2; stroke-opacity:1"></line>
<line clip-path="url(#clip142)" x1="2207.13" y1="530.022" x2="2191.13" y2="530.022" style="stroke:#e26f46; stroke-width:3.2; stroke-opacity:1"></line>
<line clip-path="url(#clip142)" x1="2207.13" y1="530.022" x2="2207.13" y2="546.022" style="stroke:#e26f46; stroke-width:3.2; stroke-opacity:1"></line>
<line clip-path="url(#clip142)" x1="2207.13" y1="530.022" x2="2223.13" y2="530.022" style="stroke:#e26f46; stroke-width:3.2; stroke-opacity:1"></line>
<line clip-path="url(#clip142)" x1="2215.29" y1="1102.67" x2="2215.29" y2="1086.67" style="stroke:#c271d2; stroke-width:3.2; stroke-opacity:1"></line>
<line clip-path="url(#clip142)" x1="2215.29" y1="1102.67" x2="2199.29" y2="1102.67" style="stroke:#c271d2; stroke-width:3.2; stroke-opacity:1"></line>
<line clip-path="url(#clip142)" x1="2215.29" y1="1102.67" x2="2215.29" y2="1118.67" style="stroke:#c271d2; stroke-width:3.2; stroke-opacity:1"></line>
<line clip-path="url(#clip142)" x1="2215.29" y1="1102.67" x2="2231.29" y2="1102.67" style="stroke:#c271d2; stroke-width:3.2; stroke-opacity:1"></line>
<line clip-path="url(#clip142)" x1="1797.29" y1="1044.04" x2="1797.29" y2="1028.04" style="stroke:#009af9; stroke-width:3.2; stroke-opacity:1"></line>
<line clip-path="url(#clip142)" x1="1797.29" y1="1044.04" x2="1781.29" y2="1044.04" style="stroke:#009af9; stroke-width:3.2; stroke-opacity:1"></line>
<line clip-path="url(#clip142)" x1="1797.29" y1="1044.04" x2="1797.29" y2="1060.04" style="stroke:#009af9; stroke-width:3.2; stroke-opacity:1"></line>
<line clip-path="url(#clip142)" x1="1797.29" y1="1044.04" x2="1813.29" y2="1044.04" style="stroke:#009af9; stroke-width:3.2; stroke-opacity:1"></line>
<line clip-path="url(#clip142)" x1="2196.16" y1="1097.61" x2="2196.16" y2="1081.61" style="stroke:#c271d2; stroke-width:3.2; stroke-opacity:1"></line>
<line clip-path="url(#clip142)" x1="2196.16" y1="1097.61" x2="2180.16" y2="1097.61" style="stroke:#c271d2; stroke-width:3.2; stroke-opacity:1"></line>
<line clip-path="url(#clip142)" x1="2196.16" y1="1097.61" x2="2196.16" y2="1113.61" style="stroke:#c271d2; stroke-width:3.2; stroke-opacity:1"></line>
<line clip-path="url(#clip142)" x1="2196.16" y1="1097.61" x2="2212.16" y2="1097.61" style="stroke:#c271d2; stroke-width:3.2; stroke-opacity:1"></line>
<line clip-path="url(#clip142)" x1="2246.78" y1="1105.97" x2="2246.78" y2="1089.97" style="stroke:#c271d2; stroke-width:3.2; stroke-opacity:1"></line>
<line clip-path="url(#clip142)" x1="2246.78" y1="1105.97" x2="2230.78" y2="1105.97" style="stroke:#c271d2; stroke-width:3.2; stroke-opacity:1"></line>
<line clip-path="url(#clip142)" x1="2246.78" y1="1105.97" x2="2246.78" y2="1121.97" style="stroke:#c271d2; stroke-width:3.2; stroke-opacity:1"></line>
<line clip-path="url(#clip142)" x1="2246.78" y1="1105.97" x2="2262.78" y2="1105.97" style="stroke:#c271d2; stroke-width:3.2; stroke-opacity:1"></line>
<line clip-path="url(#clip142)" x1="2218.23" y1="1109.6" x2="2218.23" y2="1093.6" style="stroke:#c271d2; stroke-width:3.2; stroke-opacity:1"></line>
<line clip-path="url(#clip142)" x1="2218.23" y1="1109.6" x2="2202.23" y2="1109.6" style="stroke:#c271d2; stroke-width:3.2; stroke-opacity:1"></line>
<line clip-path="url(#clip142)" x1="2218.23" y1="1109.6" x2="2218.23" y2="1125.6" style="stroke:#c271d2; stroke-width:3.2; stroke-opacity:1"></line>
<line clip-path="url(#clip142)" x1="2218.23" y1="1109.6" x2="2234.23" y2="1109.6" style="stroke:#c271d2; stroke-width:3.2; stroke-opacity:1"></line>
<line clip-path="url(#clip142)" x1="1968.04" y1="1091.78" x2="1968.04" y2="1075.78" style="stroke:#009af9; stroke-width:3.2; stroke-opacity:1"></line>
<line clip-path="url(#clip142)" x1="1968.04" y1="1091.78" x2="1952.04" y2="1091.78" style="stroke:#009af9; stroke-width:3.2; stroke-opacity:1"></line>
<line clip-path="url(#clip142)" x1="1968.04" y1="1091.78" x2="1968.04" y2="1107.78" style="stroke:#009af9; stroke-width:3.2; stroke-opacity:1"></line>
<line clip-path="url(#clip142)" x1="1968.04" y1="1091.78" x2="1984.04" y2="1091.78" style="stroke:#009af9; stroke-width:3.2; stroke-opacity:1"></line>
<line clip-path="url(#clip142)" x1="2055.16" y1="1113.01" x2="2055.16" y2="1097.01" style="stroke:#009af9; stroke-width:3.2; stroke-opacity:1"></line>
<line clip-path="url(#clip142)" x1="2055.16" y1="1113.01" x2="2039.16" y2="1113.01" style="stroke:#009af9; stroke-width:3.2; stroke-opacity:1"></line>
<line clip-path="url(#clip142)" x1="2055.16" y1="1113.01" x2="2055.16" y2="1129.01" style="stroke:#009af9; stroke-width:3.2; stroke-opacity:1"></line>
<line clip-path="url(#clip142)" x1="2055.16" y1="1113.01" x2="2071.16" y2="1113.01" style="stroke:#009af9; stroke-width:3.2; stroke-opacity:1"></line>
<line clip-path="url(#clip142)" x1="1746.48" y1="1144.59" x2="1746.48" y2="1128.59" style="stroke:#009af9; stroke-width:3.2; stroke-opacity:1"></line>
<line clip-path="url(#clip142)" x1="1746.48" y1="1144.59" x2="1730.48" y2="1144.59" style="stroke:#009af9; stroke-width:3.2; stroke-opacity:1"></line>
<line clip-path="url(#clip142)" x1="1746.48" y1="1144.59" x2="1746.48" y2="1160.59" style="stroke:#009af9; stroke-width:3.2; stroke-opacity:1"></line>
<line clip-path="url(#clip142)" x1="1746.48" y1="1144.59" x2="1762.48" y2="1144.59" style="stroke:#009af9; stroke-width:3.2; stroke-opacity:1"></line>
<line clip-path="url(#clip142)" x1="2152.79" y1="1095.31" x2="2152.79" y2="1079.31" style="stroke:#c271d2; stroke-width:3.2; stroke-opacity:1"></line>
<line clip-path="url(#clip142)" x1="2152.79" y1="1095.31" x2="2136.79" y2="1095.31" style="stroke:#c271d2; stroke-width:3.2; stroke-opacity:1"></line>
<line clip-path="url(#clip142)" x1="2152.79" y1="1095.31" x2="2152.79" y2="1111.31" style="stroke:#c271d2; stroke-width:3.2; stroke-opacity:1"></line>
<line clip-path="url(#clip142)" x1="2152.79" y1="1095.31" x2="2168.79" y2="1095.31" style="stroke:#c271d2; stroke-width:3.2; stroke-opacity:1"></line>
<line clip-path="url(#clip142)" x1="2287.91" y1="428.028" x2="2287.91" y2="412.028" style="stroke:#e26f46; stroke-width:3.2; stroke-opacity:1"></line>
<line clip-path="url(#clip142)" x1="2287.91" y1="428.028" x2="2271.91" y2="428.028" style="stroke:#e26f46; stroke-width:3.2; stroke-opacity:1"></line>
<line clip-path="url(#clip142)" x1="2287.91" y1="428.028" x2="2287.91" y2="444.028" style="stroke:#e26f46; stroke-width:3.2; stroke-opacity:1"></line>
<line clip-path="url(#clip142)" x1="2287.91" y1="428.028" x2="2303.91" y2="428.028" style="stroke:#e26f46; stroke-width:3.2; stroke-opacity:1"></line>
<line clip-path="url(#clip142)" x1="2134" y1="1222.74" x2="2134" y2="1206.74" style="stroke:#ac8d18; stroke-width:3.2; stroke-opacity:1"></line>
<line clip-path="url(#clip142)" x1="2134" y1="1222.74" x2="2118" y2="1222.74" style="stroke:#ac8d18; stroke-width:3.2; stroke-opacity:1"></line>
<line clip-path="url(#clip142)" x1="2134" y1="1222.74" x2="2134" y2="1238.74" style="stroke:#ac8d18; stroke-width:3.2; stroke-opacity:1"></line>
<line clip-path="url(#clip142)" x1="2134" y1="1222.74" x2="2150" y2="1222.74" style="stroke:#ac8d18; stroke-width:3.2; stroke-opacity:1"></line>
<line clip-path="url(#clip142)" x1="2251.75" y1="420.409" x2="2251.75" y2="404.409" style="stroke:#e26f46; stroke-width:3.2; stroke-opacity:1"></line>
<line clip-path="url(#clip142)" x1="2251.75" y1="420.409" x2="2235.75" y2="420.409" style="stroke:#e26f46; stroke-width:3.2; stroke-opacity:1"></line>
<line clip-path="url(#clip142)" x1="2251.75" y1="420.409" x2="2251.75" y2="436.409" style="stroke:#e26f46; stroke-width:3.2; stroke-opacity:1"></line>
<line clip-path="url(#clip142)" x1="2251.75" y1="420.409" x2="2267.75" y2="420.409" style="stroke:#e26f46; stroke-width:3.2; stroke-opacity:1"></line>
<line clip-path="url(#clip142)" x1="2234.7" y1="1101.57" x2="2234.7" y2="1085.57" style="stroke:#c271d2; stroke-width:3.2; stroke-opacity:1"></line>
<line clip-path="url(#clip142)" x1="2234.7" y1="1101.57" x2="2218.7" y2="1101.57" style="stroke:#c271d2; stroke-width:3.2; stroke-opacity:1"></line>
<line clip-path="url(#clip142)" x1="2234.7" y1="1101.57" x2="2234.7" y2="1117.57" style="stroke:#c271d2; stroke-width:3.2; stroke-opacity:1"></line>
<line clip-path="url(#clip142)" x1="2234.7" y1="1101.57" x2="2250.7" y2="1101.57" style="stroke:#c271d2; stroke-width:3.2; stroke-opacity:1"></line>
<line clip-path="url(#clip142)" x1="2181.08" y1="1114.94" x2="2181.08" y2="1098.94" style="stroke:#c271d2; stroke-width:3.2; stroke-opacity:1"></line>
<line clip-path="url(#clip142)" x1="2181.08" y1="1114.94" x2="2165.08" y2="1114.94" style="stroke:#c271d2; stroke-width:3.2; stroke-opacity:1"></line>
<line clip-path="url(#clip142)" x1="2181.08" y1="1114.94" x2="2181.08" y2="1130.94" style="stroke:#c271d2; stroke-width:3.2; stroke-opacity:1"></line>
<line clip-path="url(#clip142)" x1="2181.08" y1="1114.94" x2="2197.08" y2="1114.94" style="stroke:#c271d2; stroke-width:3.2; stroke-opacity:1"></line>
<line clip-path="url(#clip142)" x1="2177.6" y1="549.832" x2="2177.6" y2="533.832" style="stroke:#e26f46; stroke-width:3.2; stroke-opacity:1"></line>
<line clip-path="url(#clip142)" x1="2177.6" y1="549.832" x2="2161.6" y2="549.832" style="stroke:#e26f46; stroke-width:3.2; stroke-opacity:1"></line>
<line clip-path="url(#clip142)" x1="2177.6" y1="549.832" x2="2177.6" y2="565.832" style="stroke:#e26f46; stroke-width:3.2; stroke-opacity:1"></line>
<line clip-path="url(#clip142)" x1="2177.6" y1="549.832" x2="2193.6" y2="549.832" style="stroke:#e26f46; stroke-width:3.2; stroke-opacity:1"></line>
<line clip-path="url(#clip142)" x1="2124.79" y1="1109.52" x2="2124.79" y2="1093.52" style="stroke:#c271d2; stroke-width:3.2; stroke-opacity:1"></line>
<line clip-path="url(#clip142)" x1="2124.79" y1="1109.52" x2="2108.79" y2="1109.52" style="stroke:#c271d2; stroke-width:3.2; stroke-opacity:1"></line>
<line clip-path="url(#clip142)" x1="2124.79" y1="1109.52" x2="2124.79" y2="1125.52" style="stroke:#c271d2; stroke-width:3.2; stroke-opacity:1"></line>
<line clip-path="url(#clip142)" x1="2124.79" y1="1109.52" x2="2140.79" y2="1109.52" style="stroke:#c271d2; stroke-width:3.2; stroke-opacity:1"></line>
<line clip-path="url(#clip142)" x1="2280.85" y1="427.387" x2="2280.85" y2="411.387" style="stroke:#e26f46; stroke-width:3.2; stroke-opacity:1"></line>
<line clip-path="url(#clip142)" x1="2280.85" y1="427.387" x2="2264.85" y2="427.387" style="stroke:#e26f46; stroke-width:3.2; stroke-opacity:1"></line>
<line clip-path="url(#clip142)" x1="2280.85" y1="427.387" x2="2280.85" y2="443.387" style="stroke:#e26f46; stroke-width:3.2; stroke-opacity:1"></line>
<line clip-path="url(#clip142)" x1="2280.85" y1="427.387" x2="2296.85" y2="427.387" style="stroke:#e26f46; stroke-width:3.2; stroke-opacity:1"></line>
<line clip-path="url(#clip142)" x1="2251.74" y1="767.986" x2="2251.74" y2="751.986" style="stroke:#e26f46; stroke-width:3.2; stroke-opacity:1"></line>
<line clip-path="url(#clip142)" x1="2251.74" y1="767.986" x2="2235.74" y2="767.986" style="stroke:#e26f46; stroke-width:3.2; stroke-opacity:1"></line>
<line clip-path="url(#clip142)" x1="2251.74" y1="767.986" x2="2251.74" y2="783.986" style="stroke:#e26f46; stroke-width:3.2; stroke-opacity:1"></line>
<line clip-path="url(#clip142)" x1="2251.74" y1="767.986" x2="2267.74" y2="767.986" style="stroke:#e26f46; stroke-width:3.2; stroke-opacity:1"></line>
<line clip-path="url(#clip142)" x1="2193.87" y1="675.247" x2="2193.87" y2="659.247" style="stroke:#e26f46; stroke-width:3.2; stroke-opacity:1"></line>
<line clip-path="url(#clip142)" x1="2193.87" y1="675.247" x2="2177.87" y2="675.247" style="stroke:#e26f46; stroke-width:3.2; stroke-opacity:1"></line>
<line clip-path="url(#clip142)" x1="2193.87" y1="675.247" x2="2193.87" y2="691.247" style="stroke:#e26f46; stroke-width:3.2; stroke-opacity:1"></line>
<line clip-path="url(#clip142)" x1="2193.87" y1="675.247" x2="2209.87" y2="675.247" style="stroke:#e26f46; stroke-width:3.2; stroke-opacity:1"></line>
<line clip-path="url(#clip142)" x1="2184.62" y1="1266.16" x2="2184.62" y2="1250.16" style="stroke:#ac8d18; stroke-width:3.2; stroke-opacity:1"></line>
<line clip-path="url(#clip142)" x1="2184.62" y1="1266.16" x2="2168.62" y2="1266.16" style="stroke:#ac8d18; stroke-width:3.2; stroke-opacity:1"></line>
<line clip-path="url(#clip142)" x1="2184.62" y1="1266.16" x2="2184.62" y2="1282.16" style="stroke:#ac8d18; stroke-width:3.2; stroke-opacity:1"></line>
<line clip-path="url(#clip142)" x1="2184.62" y1="1266.16" x2="2200.62" y2="1266.16" style="stroke:#ac8d18; stroke-width:3.2; stroke-opacity:1"></line>
<line clip-path="url(#clip142)" x1="2096.15" y1="395.317" x2="2096.15" y2="379.317" style="stroke:#e26f46; stroke-width:3.2; stroke-opacity:1"></line>
<line clip-path="url(#clip142)" x1="2096.15" y1="395.317" x2="2080.15" y2="395.317" style="stroke:#e26f46; stroke-width:3.2; stroke-opacity:1"></line>
<line clip-path="url(#clip142)" x1="2096.15" y1="395.317" x2="2096.15" y2="411.317" style="stroke:#e26f46; stroke-width:3.2; stroke-opacity:1"></line>
<line clip-path="url(#clip142)" x1="2096.15" y1="395.317" x2="2112.15" y2="395.317" style="stroke:#e26f46; stroke-width:3.2; stroke-opacity:1"></line>
<line clip-path="url(#clip142)" x1="2018" y1="1078.35" x2="2018" y2="1062.35" style="stroke:#009af9; stroke-width:3.2; stroke-opacity:1"></line>
<line clip-path="url(#clip142)" x1="2018" y1="1078.35" x2="2002" y2="1078.35" style="stroke:#009af9; stroke-width:3.2; stroke-opacity:1"></line>
<line clip-path="url(#clip142)" x1="2018" y1="1078.35" x2="2018" y2="1094.35" style="stroke:#009af9; stroke-width:3.2; stroke-opacity:1"></line>
<line clip-path="url(#clip142)" x1="2018" y1="1078.35" x2="2034" y2="1078.35" style="stroke:#009af9; stroke-width:3.2; stroke-opacity:1"></line>
<line clip-path="url(#clip142)" x1="2222.15" y1="1103.6" x2="2222.15" y2="1087.6" style="stroke:#c271d2; stroke-width:3.2; stroke-opacity:1"></line>
<line clip-path="url(#clip142)" x1="2222.15" y1="1103.6" x2="2206.15" y2="1103.6" style="stroke:#c271d2; stroke-width:3.2; stroke-opacity:1"></line>
<line clip-path="url(#clip142)" x1="2222.15" y1="1103.6" x2="2222.15" y2="1119.6" style="stroke:#c271d2; stroke-width:3.2; stroke-opacity:1"></line>
<line clip-path="url(#clip142)" x1="2222.15" y1="1103.6" x2="2238.15" y2="1103.6" style="stroke:#c271d2; stroke-width:3.2; stroke-opacity:1"></line>
<line clip-path="url(#clip142)" x1="2259.96" y1="934.917" x2="2259.96" y2="918.917" style="stroke:#c271d2; stroke-width:3.2; stroke-opacity:1"></line>
<line clip-path="url(#clip142)" x1="2259.96" y1="934.917" x2="2243.96" y2="934.917" style="stroke:#c271d2; stroke-width:3.2; stroke-opacity:1"></line>
<line clip-path="url(#clip142)" x1="2259.96" y1="934.917" x2="2259.96" y2="950.917" style="stroke:#c271d2; stroke-width:3.2; stroke-opacity:1"></line>
<line clip-path="url(#clip142)" x1="2259.96" y1="934.917" x2="2275.96" y2="934.917" style="stroke:#c271d2; stroke-width:3.2; stroke-opacity:1"></line>
<line clip-path="url(#clip142)" x1="2148.2" y1="401.509" x2="2148.2" y2="385.509" style="stroke:#e26f46; stroke-width:3.2; stroke-opacity:1"></line>
<line clip-path="url(#clip142)" x1="2148.2" y1="401.509" x2="2132.2" y2="401.509" style="stroke:#e26f46; stroke-width:3.2; stroke-opacity:1"></line>
<line clip-path="url(#clip142)" x1="2148.2" y1="401.509" x2="2148.2" y2="417.509" style="stroke:#e26f46; stroke-width:3.2; stroke-opacity:1"></line>
<line clip-path="url(#clip142)" x1="2148.2" y1="401.509" x2="2164.2" y2="401.509" style="stroke:#e26f46; stroke-width:3.2; stroke-opacity:1"></line>
<line clip-path="url(#clip142)" x1="2260.62" y1="435.434" x2="2260.62" y2="419.434" style="stroke:#e26f46; stroke-width:3.2; stroke-opacity:1"></line>
<line clip-path="url(#clip142)" x1="2260.62" y1="435.434" x2="2244.62" y2="435.434" style="stroke:#e26f46; stroke-width:3.2; stroke-opacity:1"></line>
<line clip-path="url(#clip142)" x1="2260.62" y1="435.434" x2="2260.62" y2="451.434" style="stroke:#e26f46; stroke-width:3.2; stroke-opacity:1"></line>
<line clip-path="url(#clip142)" x1="2260.62" y1="435.434" x2="2276.62" y2="435.434" style="stroke:#e26f46; stroke-width:3.2; stroke-opacity:1"></line>
<line clip-path="url(#clip142)" x1="2290.9" y1="429.165" x2="2290.9" y2="413.165" style="stroke:#e26f46; stroke-width:3.2; stroke-opacity:1"></line>
<line clip-path="url(#clip142)" x1="2290.9" y1="429.165" x2="2274.9" y2="429.165" style="stroke:#e26f46; stroke-width:3.2; stroke-opacity:1"></line>
<line clip-path="url(#clip142)" x1="2290.9" y1="429.165" x2="2290.9" y2="445.165" style="stroke:#e26f46; stroke-width:3.2; stroke-opacity:1"></line>
<line clip-path="url(#clip142)" x1="2290.9" y1="429.165" x2="2306.9" y2="429.165" style="stroke:#e26f46; stroke-width:3.2; stroke-opacity:1"></line>
<line clip-path="url(#clip142)" x1="2215.85" y1="423.85" x2="2215.85" y2="407.85" style="stroke:#e26f46; stroke-width:3.2; stroke-opacity:1"></line>
<line clip-path="url(#clip142)" x1="2215.85" y1="423.85" x2="2199.85" y2="423.85" style="stroke:#e26f46; stroke-width:3.2; stroke-opacity:1"></line>
<line clip-path="url(#clip142)" x1="2215.85" y1="423.85" x2="2215.85" y2="439.85" style="stroke:#e26f46; stroke-width:3.2; stroke-opacity:1"></line>
<line clip-path="url(#clip142)" x1="2215.85" y1="423.85" x2="2231.85" y2="423.85" style="stroke:#e26f46; stroke-width:3.2; stroke-opacity:1"></line>
<line clip-path="url(#clip142)" x1="2162.42" y1="1109.16" x2="2162.42" y2="1093.16" style="stroke:#c271d2; stroke-width:3.2; stroke-opacity:1"></line>
<line clip-path="url(#clip142)" x1="2162.42" y1="1109.16" x2="2146.42" y2="1109.16" style="stroke:#c271d2; stroke-width:3.2; stroke-opacity:1"></line>
<line clip-path="url(#clip142)" x1="2162.42" y1="1109.16" x2="2162.42" y2="1125.16" style="stroke:#c271d2; stroke-width:3.2; stroke-opacity:1"></line>
<line clip-path="url(#clip142)" x1="2162.42" y1="1109.16" x2="2178.42" y2="1109.16" style="stroke:#c271d2; stroke-width:3.2; stroke-opacity:1"></line>
<line clip-path="url(#clip142)" x1="2205.03" y1="927.275" x2="2205.03" y2="911.275" style="stroke:#c271d2; stroke-width:3.2; stroke-opacity:1"></line>
<line clip-path="url(#clip142)" x1="2205.03" y1="927.275" x2="2189.03" y2="927.275" style="stroke:#c271d2; stroke-width:3.2; stroke-opacity:1"></line>
<line clip-path="url(#clip142)" x1="2205.03" y1="927.275" x2="2205.03" y2="943.275" style="stroke:#c271d2; stroke-width:3.2; stroke-opacity:1"></line>
<line clip-path="url(#clip142)" x1="2205.03" y1="927.275" x2="2221.03" y2="927.275" style="stroke:#c271d2; stroke-width:3.2; stroke-opacity:1"></line>
<line clip-path="url(#clip142)" x1="2156.22" y1="1107.22" x2="2156.22" y2="1091.22" style="stroke:#c271d2; stroke-width:3.2; stroke-opacity:1"></line>
<line clip-path="url(#clip142)" x1="2156.22" y1="1107.22" x2="2140.22" y2="1107.22" style="stroke:#c271d2; stroke-width:3.2; stroke-opacity:1"></line>
<line clip-path="url(#clip142)" x1="2156.22" y1="1107.22" x2="2156.22" y2="1123.22" style="stroke:#c271d2; stroke-width:3.2; stroke-opacity:1"></line>
<line clip-path="url(#clip142)" x1="2156.22" y1="1107.22" x2="2172.22" y2="1107.22" style="stroke:#c271d2; stroke-width:3.2; stroke-opacity:1"></line>
<line clip-path="url(#clip142)" x1="2185.43" y1="1229.86" x2="2185.43" y2="1213.86" style="stroke:#ac8d18; stroke-width:3.2; stroke-opacity:1"></line>
<line clip-path="url(#clip142)" x1="2185.43" y1="1229.86" x2="2169.43" y2="1229.86" style="stroke:#ac8d18; stroke-width:3.2; stroke-opacity:1"></line>
<line clip-path="url(#clip142)" x1="2185.43" y1="1229.86" x2="2185.43" y2="1245.86" style="stroke:#ac8d18; stroke-width:3.2; stroke-opacity:1"></line>
<line clip-path="url(#clip142)" x1="2185.43" y1="1229.86" x2="2201.43" y2="1229.86" style="stroke:#ac8d18; stroke-width:3.2; stroke-opacity:1"></line>
<line clip-path="url(#clip142)" x1="2097.44" y1="1198.58" x2="2097.44" y2="1182.58" style="stroke:#ac8d18; stroke-width:3.2; stroke-opacity:1"></line>
<line clip-path="url(#clip142)" x1="2097.44" y1="1198.58" x2="2081.44" y2="1198.58" style="stroke:#ac8d18; stroke-width:3.2; stroke-opacity:1"></line>
<line clip-path="url(#clip142)" x1="2097.44" y1="1198.58" x2="2097.44" y2="1214.58" style="stroke:#ac8d18; stroke-width:3.2; stroke-opacity:1"></line>
<line clip-path="url(#clip142)" x1="2097.44" y1="1198.58" x2="2113.44" y2="1198.58" style="stroke:#ac8d18; stroke-width:3.2; stroke-opacity:1"></line>
<line clip-path="url(#clip142)" x1="2252.04" y1="419.968" x2="2252.04" y2="403.968" style="stroke:#e26f46; stroke-width:3.2; stroke-opacity:1"></line>
<line clip-path="url(#clip142)" x1="2252.04" y1="419.968" x2="2236.04" y2="419.968" style="stroke:#e26f46; stroke-width:3.2; stroke-opacity:1"></line>
<line clip-path="url(#clip142)" x1="2252.04" y1="419.968" x2="2252.04" y2="435.968" style="stroke:#e26f46; stroke-width:3.2; stroke-opacity:1"></line>
<line clip-path="url(#clip142)" x1="2252.04" y1="419.968" x2="2268.04" y2="419.968" style="stroke:#e26f46; stroke-width:3.2; stroke-opacity:1"></line>
<line clip-path="url(#clip142)" x1="2120.54" y1="1087.44" x2="2120.54" y2="1071.44" style="stroke:#c271d2; stroke-width:3.2; stroke-opacity:1"></line>
<line clip-path="url(#clip142)" x1="2120.54" y1="1087.44" x2="2104.54" y2="1087.44" style="stroke:#c271d2; stroke-width:3.2; stroke-opacity:1"></line>
<line clip-path="url(#clip142)" x1="2120.54" y1="1087.44" x2="2120.54" y2="1103.44" style="stroke:#c271d2; stroke-width:3.2; stroke-opacity:1"></line>
<line clip-path="url(#clip142)" x1="2120.54" y1="1087.44" x2="2136.54" y2="1087.44" style="stroke:#c271d2; stroke-width:3.2; stroke-opacity:1"></line>
<line clip-path="url(#clip142)" x1="2292.13" y1="427.281" x2="2292.13" y2="411.281" style="stroke:#e26f46; stroke-width:3.2; stroke-opacity:1"></line>
<line clip-path="url(#clip142)" x1="2292.13" y1="427.281" x2="2276.13" y2="427.281" style="stroke:#e26f46; stroke-width:3.2; stroke-opacity:1"></line>
<line clip-path="url(#clip142)" x1="2292.13" y1="427.281" x2="2292.13" y2="443.281" style="stroke:#e26f46; stroke-width:3.2; stroke-opacity:1"></line>
<line clip-path="url(#clip142)" x1="2292.13" y1="427.281" x2="2308.13" y2="427.281" style="stroke:#e26f46; stroke-width:3.2; stroke-opacity:1"></line>
<line clip-path="url(#clip142)" x1="2247.87" y1="572.968" x2="2247.87" y2="556.968" style="stroke:#e26f46; stroke-width:3.2; stroke-opacity:1"></line>
<line clip-path="url(#clip142)" x1="2247.87" y1="572.968" x2="2231.87" y2="572.968" style="stroke:#e26f46; stroke-width:3.2; stroke-opacity:1"></line>
<line clip-path="url(#clip142)" x1="2247.87" y1="572.968" x2="2247.87" y2="588.968" style="stroke:#e26f46; stroke-width:3.2; stroke-opacity:1"></line>
<line clip-path="url(#clip142)" x1="2247.87" y1="572.968" x2="2263.87" y2="572.968" style="stroke:#e26f46; stroke-width:3.2; stroke-opacity:1"></line>
<line clip-path="url(#clip142)" x1="2253.96" y1="512.501" x2="2253.96" y2="496.501" style="stroke:#e26f46; stroke-width:3.2; stroke-opacity:1"></line>
<line clip-path="url(#clip142)" x1="2253.96" y1="512.501" x2="2237.96" y2="512.501" style="stroke:#e26f46; stroke-width:3.2; stroke-opacity:1"></line>
<line clip-path="url(#clip142)" x1="2253.96" y1="512.501" x2="2253.96" y2="528.501" style="stroke:#e26f46; stroke-width:3.2; stroke-opacity:1"></line>
<line clip-path="url(#clip142)" x1="2253.96" y1="512.501" x2="2269.96" y2="512.501" style="stroke:#e26f46; stroke-width:3.2; stroke-opacity:1"></line>
<line clip-path="url(#clip142)" x1="2213.08" y1="1384.24" x2="2213.08" y2="1368.24" style="stroke:#ac8d18; stroke-width:3.2; stroke-opacity:1"></line>
<line clip-path="url(#clip142)" x1="2213.08" y1="1384.24" x2="2197.08" y2="1384.24" style="stroke:#ac8d18; stroke-width:3.2; stroke-opacity:1"></line>
<line clip-path="url(#clip142)" x1="2213.08" y1="1384.24" x2="2213.08" y2="1400.24" style="stroke:#ac8d18; stroke-width:3.2; stroke-opacity:1"></line>
<line clip-path="url(#clip142)" x1="2213.08" y1="1384.24" x2="2229.08" y2="1384.24" style="stroke:#ac8d18; stroke-width:3.2; stroke-opacity:1"></line>
<line clip-path="url(#clip142)" x1="2252.45" y1="1103.01" x2="2252.45" y2="1087.01" style="stroke:#c271d2; stroke-width:3.2; stroke-opacity:1"></line>
<line clip-path="url(#clip142)" x1="2252.45" y1="1103.01" x2="2236.45" y2="1103.01" style="stroke:#c271d2; stroke-width:3.2; stroke-opacity:1"></line>
<line clip-path="url(#clip142)" x1="2252.45" y1="1103.01" x2="2252.45" y2="1119.01" style="stroke:#c271d2; stroke-width:3.2; stroke-opacity:1"></line>
<line clip-path="url(#clip142)" x1="2252.45" y1="1103.01" x2="2268.45" y2="1103.01" style="stroke:#c271d2; stroke-width:3.2; stroke-opacity:1"></line>
<line clip-path="url(#clip142)" x1="1887.77" y1="1071.44" x2="1887.77" y2="1055.44" style="stroke:#009af9; stroke-width:3.2; stroke-opacity:1"></line>
<line clip-path="url(#clip142)" x1="1887.77" y1="1071.44" x2="1871.77" y2="1071.44" style="stroke:#009af9; stroke-width:3.2; stroke-opacity:1"></line>
<line clip-path="url(#clip142)" x1="1887.77" y1="1071.44" x2="1887.77" y2="1087.44" style="stroke:#009af9; stroke-width:3.2; stroke-opacity:1"></line>
<line clip-path="url(#clip142)" x1="1887.77" y1="1071.44" x2="1903.77" y2="1071.44" style="stroke:#009af9; stroke-width:3.2; stroke-opacity:1"></line>
<line clip-path="url(#clip142)" x1="2268.61" y1="765.054" x2="2268.61" y2="749.054" style="stroke:#e26f46; stroke-width:3.2; stroke-opacity:1"></line>
<line clip-path="url(#clip142)" x1="2268.61" y1="765.054" x2="2252.61" y2="765.054" style="stroke:#e26f46; stroke-width:3.2; stroke-opacity:1"></line>
<line clip-path="url(#clip142)" x1="2268.61" y1="765.054" x2="2268.61" y2="781.054" style="stroke:#e26f46; stroke-width:3.2; stroke-opacity:1"></line>
<line clip-path="url(#clip142)" x1="2268.61" y1="765.054" x2="2284.61" y2="765.054" style="stroke:#e26f46; stroke-width:3.2; stroke-opacity:1"></line>
<circle clip-path="url(#clip142)" cx="1910.14" cy="1135.53" r="28.8" fill="#ff0000" fill-rule="evenodd" fill-opacity="1" stroke="#000000" stroke-opacity="1" stroke-width="3.2"></circle>
<circle clip-path="url(#clip142)" cx="2245.47" cy="521.936" r="28.8" fill="#ff0000" fill-rule="evenodd" fill-opacity="1" stroke="#000000" stroke-opacity="1" stroke-width="3.2"></circle>
<circle clip-path="url(#clip142)" cx="271.369" cy="86.1857" r="28.8" fill="#ff0000" fill-rule="evenodd" fill-opacity="1" stroke="#000000" stroke-opacity="1" stroke-width="3.2"></circle>
<circle clip-path="url(#clip142)" cx="2201.97" cy="1069.4" r="28.8" fill="#ff0000" fill-rule="evenodd" fill-opacity="1" stroke="#000000" stroke-opacity="1" stroke-width="3.2"></circle>
<circle clip-path="url(#clip142)" cx="2200.32" cy="1228.97" r="28.8" fill="#ff0000" fill-rule="evenodd" fill-opacity="1" stroke="#000000" stroke-opacity="1" stroke-width="3.2"></circle>
</svg>